<?xml version="1.0" encoding="utf-8" standalone="no"?>
<!DOCTYPE svg PUBLIC "-//W3C//DTD SVG 1.1//EN"
  "http://www.w3.org/Graphics/SVG/1.1/DTD/svg11.dtd">
<!-- Created with matplotlib (https://matplotlib.org/) -->
<svg height="468pt" version="1.1" viewBox="0 0 468 468" width="468pt" xmlns="http://www.w3.org/2000/svg" xmlns:xlink="http://www.w3.org/1999/xlink">
 <defs>
  <style type="text/css">
*{stroke-linecap:butt;stroke-linejoin:round;white-space:pre;}
  </style>
 </defs>
 <g id="figure_1">
  <g id="patch_1">
   <path d="M 0 468 
L 468 468 
L 468 0 
L 0 0 
z
" style="fill:#ffffff;"/>
  </g>
  <g id="axes_1">
   <g id="patch_2">
    <path d="M 58.925 318.603125 
L 228.13125 318.603125 
L 228.13125 149.396875 
L 58.925 149.396875 
z
" style="fill:#ffffff;"/>
   </g>
   <g id="matplotlib.axis_1">
    <g id="xtick_1">
     <g id="line2d_1">
      <defs>
       <path d="M 0 0 
L 0 3.5 
" id="mc094b6a0e0" style="stroke:#000000;stroke-width:0.8;"/>
      </defs>
      <g>
       <use style="stroke:#000000;stroke-width:0.8;" x="58.925" xlink:href="#mc094b6a0e0" y="318.603125"/>
      </g>
     </g>
     <g id="text_1">
      <!-- 0.0 -->
      <defs>
       <path d="M 31.78125 66.40625 
Q 24.171875 66.40625 20.328125 58.90625 
Q 16.5 51.421875 16.5 36.375 
Q 16.5 21.390625 20.328125 13.890625 
Q 24.171875 6.390625 31.78125 6.390625 
Q 39.453125 6.390625 43.28125 13.890625 
Q 47.125 21.390625 47.125 36.375 
Q 47.125 51.421875 43.28125 58.90625 
Q 39.453125 66.40625 31.78125 66.40625 
z
M 31.78125 74.21875 
Q 44.046875 74.21875 50.515625 64.515625 
Q 56.984375 54.828125 56.984375 36.375 
Q 56.984375 17.96875 50.515625 8.265625 
Q 44.046875 -1.421875 31.78125 -1.421875 
Q 19.53125 -1.421875 13.0625 8.265625 
Q 6.59375 17.96875 6.59375 36.375 
Q 6.59375 54.828125 13.0625 64.515625 
Q 19.53125 74.21875 31.78125 74.21875 
z
" id="DejaVuSans-48"/>
       <path d="M 10.6875 12.40625 
L 21 12.40625 
L 21 0 
L 10.6875 0 
z
" id="DejaVuSans-46"/>
      </defs>
      <g transform="translate(47.792812 336.240937)scale(0.14 -0.14)">
       <use xlink:href="#DejaVuSans-48"/>
       <use x="63.623047" xlink:href="#DejaVuSans-46"/>
       <use x="95.410156" xlink:href="#DejaVuSans-48"/>
      </g>
     </g>
    </g>
    <g id="xtick_2">
     <g id="line2d_2">
      <g>
       <use style="stroke:#000000;stroke-width:0.8;" x="143.528125" xlink:href="#mc094b6a0e0" y="318.603125"/>
      </g>
     </g>
     <g id="text_2">
      <!-- 0.5 -->
      <defs>
       <path d="M 10.796875 72.90625 
L 49.515625 72.90625 
L 49.515625 64.59375 
L 19.828125 64.59375 
L 19.828125 46.734375 
Q 21.96875 47.46875 24.109375 47.828125 
Q 26.265625 48.1875 28.421875 48.1875 
Q 40.625 48.1875 47.75 41.5 
Q 54.890625 34.8125 54.890625 23.390625 
Q 54.890625 11.625 47.5625 5.09375 
Q 40.234375 -1.421875 26.90625 -1.421875 
Q 22.3125 -1.421875 17.546875 -0.640625 
Q 12.796875 0.140625 7.71875 1.703125 
L 7.71875 11.625 
Q 12.109375 9.234375 16.796875 8.0625 
Q 21.484375 6.890625 26.703125 6.890625 
Q 35.15625 6.890625 40.078125 11.328125 
Q 45.015625 15.765625 45.015625 23.390625 
Q 45.015625 31 40.078125 35.4375 
Q 35.15625 39.890625 26.703125 39.890625 
Q 22.75 39.890625 18.8125 39.015625 
Q 14.890625 38.140625 10.796875 36.28125 
z
" id="DejaVuSans-53"/>
      </defs>
      <g transform="translate(132.395938 336.240937)scale(0.14 -0.14)">
       <use xlink:href="#DejaVuSans-48"/>
       <use x="63.623047" xlink:href="#DejaVuSans-46"/>
       <use x="95.410156" xlink:href="#DejaVuSans-53"/>
      </g>
     </g>
    </g>
    <g id="xtick_3">
     <g id="line2d_3">
      <g>
       <use style="stroke:#000000;stroke-width:0.8;" x="228.13125" xlink:href="#mc094b6a0e0" y="318.603125"/>
      </g>
     </g>
     <g id="text_3">
      <!-- 1.0 -->
      <defs>
       <path d="M 12.40625 8.296875 
L 28.515625 8.296875 
L 28.515625 63.921875 
L 10.984375 60.40625 
L 10.984375 69.390625 
L 28.421875 72.90625 
L 38.28125 72.90625 
L 38.28125 8.296875 
L 54.390625 8.296875 
L 54.390625 0 
L 12.40625 0 
z
" id="DejaVuSans-49"/>
      </defs>
      <g transform="translate(216.999063 336.240937)scale(0.14 -0.14)">
       <use xlink:href="#DejaVuSans-49"/>
       <use x="63.623047" xlink:href="#DejaVuSans-46"/>
       <use x="95.410156" xlink:href="#DejaVuSans-48"/>
      </g>
     </g>
    </g>
    <g id="text_4">
     <!-- False alarm rate -->
     <defs>
      <path d="M 9.8125 72.90625 
L 51.703125 72.90625 
L 51.703125 64.59375 
L 19.671875 64.59375 
L 19.671875 43.109375 
L 48.578125 43.109375 
L 48.578125 34.8125 
L 19.671875 34.8125 
L 19.671875 0 
L 9.8125 0 
z
" id="DejaVuSans-70"/>
      <path d="M 34.28125 27.484375 
Q 23.390625 27.484375 19.1875 25 
Q 14.984375 22.515625 14.984375 16.5 
Q 14.984375 11.71875 18.140625 8.90625 
Q 21.296875 6.109375 26.703125 6.109375 
Q 34.1875 6.109375 38.703125 11.40625 
Q 43.21875 16.703125 43.21875 25.484375 
L 43.21875 27.484375 
z
M 52.203125 31.203125 
L 52.203125 0 
L 43.21875 0 
L 43.21875 8.296875 
Q 40.140625 3.328125 35.546875 0.953125 
Q 30.953125 -1.421875 24.3125 -1.421875 
Q 15.921875 -1.421875 10.953125 3.296875 
Q 6 8.015625 6 15.921875 
Q 6 25.140625 12.171875 29.828125 
Q 18.359375 34.515625 30.609375 34.515625 
L 43.21875 34.515625 
L 43.21875 35.40625 
Q 43.21875 41.609375 39.140625 45 
Q 35.0625 48.390625 27.6875 48.390625 
Q 23 48.390625 18.546875 47.265625 
Q 14.109375 46.140625 10.015625 43.890625 
L 10.015625 52.203125 
Q 14.9375 54.109375 19.578125 55.046875 
Q 24.21875 56 28.609375 56 
Q 40.484375 56 46.34375 49.84375 
Q 52.203125 43.703125 52.203125 31.203125 
z
" id="DejaVuSans-97"/>
      <path d="M 9.421875 75.984375 
L 18.40625 75.984375 
L 18.40625 0 
L 9.421875 0 
z
" id="DejaVuSans-108"/>
      <path d="M 44.28125 53.078125 
L 44.28125 44.578125 
Q 40.484375 46.53125 36.375 47.5 
Q 32.28125 48.484375 27.875 48.484375 
Q 21.1875 48.484375 17.84375 46.4375 
Q 14.5 44.390625 14.5 40.28125 
Q 14.5 37.15625 16.890625 35.375 
Q 19.28125 33.59375 26.515625 31.984375 
L 29.59375 31.296875 
Q 39.15625 29.25 43.1875 25.515625 
Q 47.21875 21.78125 47.21875 15.09375 
Q 47.21875 7.46875 41.1875 3.015625 
Q 35.15625 -1.421875 24.609375 -1.421875 
Q 20.21875 -1.421875 15.453125 -0.5625 
Q 10.6875 0.296875 5.421875 2 
L 5.421875 11.28125 
Q 10.40625 8.6875 15.234375 7.390625 
Q 20.0625 6.109375 24.8125 6.109375 
Q 31.15625 6.109375 34.5625 8.28125 
Q 37.984375 10.453125 37.984375 14.40625 
Q 37.984375 18.0625 35.515625 20.015625 
Q 33.0625 21.96875 24.703125 23.78125 
L 21.578125 24.515625 
Q 13.234375 26.265625 9.515625 29.90625 
Q 5.8125 33.546875 5.8125 39.890625 
Q 5.8125 47.609375 11.28125 51.796875 
Q 16.75 56 26.8125 56 
Q 31.78125 56 36.171875 55.265625 
Q 40.578125 54.546875 44.28125 53.078125 
z
" id="DejaVuSans-115"/>
      <path d="M 56.203125 29.59375 
L 56.203125 25.203125 
L 14.890625 25.203125 
Q 15.484375 15.921875 20.484375 11.0625 
Q 25.484375 6.203125 34.421875 6.203125 
Q 39.59375 6.203125 44.453125 7.46875 
Q 49.3125 8.734375 54.109375 11.28125 
L 54.109375 2.78125 
Q 49.265625 0.734375 44.1875 -0.34375 
Q 39.109375 -1.421875 33.890625 -1.421875 
Q 20.796875 -1.421875 13.15625 6.1875 
Q 5.515625 13.8125 5.515625 26.8125 
Q 5.515625 40.234375 12.765625 48.109375 
Q 20.015625 56 32.328125 56 
Q 43.359375 56 49.78125 48.890625 
Q 56.203125 41.796875 56.203125 29.59375 
z
M 47.21875 32.234375 
Q 47.125 39.59375 43.09375 43.984375 
Q 39.0625 48.390625 32.421875 48.390625 
Q 24.90625 48.390625 20.390625 44.140625 
Q 15.875 39.890625 15.1875 32.171875 
z
" id="DejaVuSans-101"/>
      <path id="DejaVuSans-32"/>
      <path d="M 41.109375 46.296875 
Q 39.59375 47.171875 37.8125 47.578125 
Q 36.03125 48 33.890625 48 
Q 26.265625 48 22.1875 43.046875 
Q 18.109375 38.09375 18.109375 28.8125 
L 18.109375 0 
L 9.078125 0 
L 9.078125 54.6875 
L 18.109375 54.6875 
L 18.109375 46.1875 
Q 20.953125 51.171875 25.484375 53.578125 
Q 30.03125 56 36.53125 56 
Q 37.453125 56 38.578125 55.875 
Q 39.703125 55.765625 41.0625 55.515625 
z
" id="DejaVuSans-114"/>
      <path d="M 52 44.1875 
Q 55.375 50.25 60.0625 53.125 
Q 64.75 56 71.09375 56 
Q 79.640625 56 84.28125 50.015625 
Q 88.921875 44.046875 88.921875 33.015625 
L 88.921875 0 
L 79.890625 0 
L 79.890625 32.71875 
Q 79.890625 40.578125 77.09375 44.375 
Q 74.3125 48.1875 68.609375 48.1875 
Q 61.625 48.1875 57.5625 43.546875 
Q 53.515625 38.921875 53.515625 30.90625 
L 53.515625 0 
L 44.484375 0 
L 44.484375 32.71875 
Q 44.484375 40.625 41.703125 44.40625 
Q 38.921875 48.1875 33.109375 48.1875 
Q 26.21875 48.1875 22.15625 43.53125 
Q 18.109375 38.875 18.109375 30.90625 
L 18.109375 0 
L 9.078125 0 
L 9.078125 54.6875 
L 18.109375 54.6875 
L 18.109375 46.1875 
Q 21.1875 51.21875 25.484375 53.609375 
Q 29.78125 56 35.6875 56 
Q 41.65625 56 45.828125 52.96875 
Q 50 49.953125 52 44.1875 
z
" id="DejaVuSans-109"/>
      <path d="M 18.3125 70.21875 
L 18.3125 54.6875 
L 36.8125 54.6875 
L 36.8125 47.703125 
L 18.3125 47.703125 
L 18.3125 18.015625 
Q 18.3125 11.328125 20.140625 9.421875 
Q 21.96875 7.515625 27.59375 7.515625 
L 36.8125 7.515625 
L 36.8125 0 
L 27.59375 0 
Q 17.1875 0 13.234375 3.875 
Q 9.28125 7.765625 9.28125 18.015625 
L 9.28125 47.703125 
L 2.6875 47.703125 
L 2.6875 54.6875 
L 9.28125 54.6875 
L 9.28125 70.21875 
z
" id="DejaVuSans-116"/>
     </defs>
     <g transform="translate(78.280625 355.31)scale(0.16 -0.16)">
      <use xlink:href="#DejaVuSans-70"/>
      <use x="57.378906" xlink:href="#DejaVuSans-97"/>
      <use x="118.658203" xlink:href="#DejaVuSans-108"/>
      <use x="146.441406" xlink:href="#DejaVuSans-115"/>
      <use x="198.541016" xlink:href="#DejaVuSans-101"/>
      <use x="260.064453" xlink:href="#DejaVuSans-32"/>
      <use x="291.851562" xlink:href="#DejaVuSans-97"/>
      <use x="353.130859" xlink:href="#DejaVuSans-108"/>
      <use x="380.914062" xlink:href="#DejaVuSans-97"/>
      <use x="442.193359" xlink:href="#DejaVuSans-114"/>
      <use x="483.291016" xlink:href="#DejaVuSans-109"/>
      <use x="580.703125" xlink:href="#DejaVuSans-32"/>
      <use x="612.490234" xlink:href="#DejaVuSans-114"/>
      <use x="653.603516" xlink:href="#DejaVuSans-97"/>
      <use x="714.882812" xlink:href="#DejaVuSans-116"/>
      <use x="754.091797" xlink:href="#DejaVuSans-101"/>
     </g>
    </g>
   </g>
   <g id="matplotlib.axis_2">
    <g id="ytick_1">
     <g id="line2d_4">
      <defs>
       <path d="M 0 0 
L -3.5 0 
" id="mc428d5b905" style="stroke:#000000;stroke-width:0.8;"/>
      </defs>
      <g>
       <use style="stroke:#000000;stroke-width:0.8;" x="58.925" xlink:href="#mc428d5b905" y="318.603125"/>
      </g>
     </g>
     <g id="text_5">
      <!-- 0.0 -->
      <g transform="translate(29.660625 323.922031)scale(0.14 -0.14)">
       <use xlink:href="#DejaVuSans-48"/>
       <use x="63.623047" xlink:href="#DejaVuSans-46"/>
       <use x="95.410156" xlink:href="#DejaVuSans-48"/>
      </g>
     </g>
    </g>
    <g id="ytick_2">
     <g id="line2d_5">
      <g>
       <use style="stroke:#000000;stroke-width:0.8;" x="58.925" xlink:href="#mc428d5b905" y="238.02872"/>
      </g>
     </g>
     <g id="text_6">
      <!-- 0.5 -->
      <g transform="translate(29.660625 243.347626)scale(0.14 -0.14)">
       <use xlink:href="#DejaVuSans-48"/>
       <use x="63.623047" xlink:href="#DejaVuSans-46"/>
       <use x="95.410156" xlink:href="#DejaVuSans-53"/>
      </g>
     </g>
    </g>
    <g id="ytick_3">
     <g id="line2d_6">
      <g>
       <use style="stroke:#000000;stroke-width:0.8;" x="58.925" xlink:href="#mc428d5b905" y="157.454315"/>
      </g>
     </g>
     <g id="text_7">
      <!-- 1.0 -->
      <g transform="translate(29.660625 162.773222)scale(0.14 -0.14)">
       <use xlink:href="#DejaVuSans-49"/>
       <use x="63.623047" xlink:href="#DejaVuSans-46"/>
       <use x="95.410156" xlink:href="#DejaVuSans-48"/>
      </g>
     </g>
    </g>
    <g id="text_8">
     <!-- Hit rate -->
     <defs>
      <path d="M 9.8125 72.90625 
L 19.671875 72.90625 
L 19.671875 43.015625 
L 55.515625 43.015625 
L 55.515625 72.90625 
L 65.375 72.90625 
L 65.375 0 
L 55.515625 0 
L 55.515625 34.71875 
L 19.671875 34.71875 
L 19.671875 0 
L 9.8125 0 
z
" id="DejaVuSans-72"/>
      <path d="M 9.421875 54.6875 
L 18.40625 54.6875 
L 18.40625 0 
L 9.421875 0 
z
M 9.421875 75.984375 
L 18.40625 75.984375 
L 18.40625 64.59375 
L 9.421875 64.59375 
z
" id="DejaVuSans-105"/>
     </defs>
     <g transform="translate(22.333125 264.1675)rotate(-90)scale(0.16 -0.16)">
      <use xlink:href="#DejaVuSans-72"/>
      <use x="75.195312" xlink:href="#DejaVuSans-105"/>
      <use x="102.978516" xlink:href="#DejaVuSans-116"/>
      <use x="142.1875" xlink:href="#DejaVuSans-32"/>
      <use x="173.974609" xlink:href="#DejaVuSans-114"/>
      <use x="215.087891" xlink:href="#DejaVuSans-97"/>
      <use x="276.367188" xlink:href="#DejaVuSans-116"/>
      <use x="315.576172" xlink:href="#DejaVuSans-101"/>
     </g>
    </g>
   </g>
   <g id="line2d_7">
    <path clip-path="url(#pb55afad9b3)" d="M 62.550848 229.512726 
L 72.219777 207.240127 
L 86.72317 194.138597 
L 107.269643 184.967527 
L 144.736741 173.176151 
" style="fill:none;stroke:#808080;stroke-linecap:square;stroke-opacity:0.7;stroke-width:1.5;"/>
    <defs>
     <path d="M 0 3 
C 0.795609 3 1.55874 2.683901 2.12132 2.12132 
C 2.683901 1.55874 3 0.795609 3 0 
C 3 -0.795609 2.683901 -1.55874 2.12132 -2.12132 
C 1.55874 -2.683901 0.795609 -3 0 -3 
C -0.795609 -3 -1.55874 -2.683901 -2.12132 -2.12132 
C -2.683901 -1.55874 -3 -0.795609 -3 0 
C -3 0.795609 -2.683901 1.55874 -2.12132 2.12132 
C -1.55874 2.683901 -0.795609 3 0 3 
z
" id="m3264c55434" style="stroke:#808080;stroke-opacity:0.7;"/>
    </defs>
    <g clip-path="url(#pb55afad9b3)">
     <use style="fill:#808080;fill-opacity:0.7;stroke:#808080;stroke-opacity:0.7;" x="62.550848" xlink:href="#m3264c55434" y="229.512726"/>
     <use style="fill:#808080;fill-opacity:0.7;stroke:#808080;stroke-opacity:0.7;" x="72.219777" xlink:href="#m3264c55434" y="207.240127"/>
     <use style="fill:#808080;fill-opacity:0.7;stroke:#808080;stroke-opacity:0.7;" x="86.72317" xlink:href="#m3264c55434" y="194.138597"/>
     <use style="fill:#808080;fill-opacity:0.7;stroke:#808080;stroke-opacity:0.7;" x="107.269643" xlink:href="#m3264c55434" y="184.967527"/>
     <use style="fill:#808080;fill-opacity:0.7;stroke:#808080;stroke-opacity:0.7;" x="144.736741" xlink:href="#m3264c55434" y="173.176151"/>
    </g>
   </g>
   <g id="line2d_8">
    <path clip-path="url(#pb55afad9b3)" d="M 67.385312 238.683797 
L 77.054241 216.411197 
L 93.974866 200.689362 
L 125.398884 187.587833 
L 160.44875 174.486303 
" style="fill:none;stroke:#808080;stroke-linecap:square;stroke-opacity:0.7;stroke-width:1.5;"/>
    <defs>
     <path d="M -0 3 
L 3 -3 
L -3 -3 
z
" id="m04413a103b" style="stroke:#808080;stroke-linejoin:miter;stroke-opacity:0.7;"/>
    </defs>
    <g clip-path="url(#pb55afad9b3)">
     <use style="fill:#808080;fill-opacity:0.7;stroke:#808080;stroke-linejoin:miter;stroke-opacity:0.7;" x="67.385312" xlink:href="#m04413a103b" y="238.683797"/>
     <use style="fill:#808080;fill-opacity:0.7;stroke:#808080;stroke-linejoin:miter;stroke-opacity:0.7;" x="77.054241" xlink:href="#m04413a103b" y="216.411197"/>
     <use style="fill:#808080;fill-opacity:0.7;stroke:#808080;stroke-linejoin:miter;stroke-opacity:0.7;" x="93.974866" xlink:href="#m04413a103b" y="200.689362"/>
     <use style="fill:#808080;fill-opacity:0.7;stroke:#808080;stroke-linejoin:miter;stroke-opacity:0.7;" x="125.398884" xlink:href="#m04413a103b" y="187.587833"/>
     <use style="fill:#808080;fill-opacity:0.7;stroke:#808080;stroke-linejoin:miter;stroke-opacity:0.7;" x="160.44875" xlink:href="#m04413a103b" y="174.486303"/>
    </g>
   </g>
   <g id="line2d_9">
    <path clip-path="url(#pb55afad9b3)" d="M 64.143062 222.47786 
L 74.579187 189.36178 
L 88.315384 178.135079 
L 109.413279 172.441155 
L 160.691319 162.503645 
L 228.13125 157.454315 
" style="fill:none;stroke:#000000;stroke-linecap:square;stroke-opacity:0.7;stroke-width:1.5;"/>
    <defs>
     <path d="M 0 3 
C 0.795609 3 1.55874 2.683901 2.12132 2.12132 
C 2.683901 1.55874 3 0.795609 3 0 
C 3 -0.795609 2.683901 -1.55874 2.12132 -2.12132 
C 1.55874 -2.683901 0.795609 -3 0 -3 
C -0.795609 -3 -1.55874 -2.683901 -2.12132 -2.12132 
C -2.683901 -1.55874 -3 -0.795609 -3 0 
C -3 0.795609 -2.683901 1.55874 -2.12132 2.12132 
C -1.55874 2.683901 -0.795609 3 0 3 
z
" id="mb57d529148" style="stroke:#000000;stroke-opacity:0.7;"/>
    </defs>
    <g clip-path="url(#pb55afad9b3)">
     <use style="fill-opacity:0.7;stroke:#000000;stroke-opacity:0.7;" x="64.143062" xlink:href="#mb57d529148" y="222.47786"/>
     <use style="fill-opacity:0.7;stroke:#000000;stroke-opacity:0.7;" x="74.579187" xlink:href="#mb57d529148" y="189.36178"/>
     <use style="fill-opacity:0.7;stroke:#000000;stroke-opacity:0.7;" x="88.315384" xlink:href="#mb57d529148" y="178.135079"/>
     <use style="fill-opacity:0.7;stroke:#000000;stroke-opacity:0.7;" x="109.413279" xlink:href="#mb57d529148" y="172.441155"/>
     <use style="fill-opacity:0.7;stroke:#000000;stroke-opacity:0.7;" x="160.691319" xlink:href="#mb57d529148" y="162.503645"/>
     <use style="fill-opacity:0.7;stroke:#000000;stroke-opacity:0.7;" x="228.13125" xlink:href="#mb57d529148" y="157.454315"/>
    </g>
   </g>
   <g id="line2d_10">
    <path clip-path="url(#pb55afad9b3)" d="M 65.270234 231.596762 
L 82.303664 201.401544 
L 98.519262 191.336472 
L 122.602952 180.114185 
L 175.479905 166.765853 
L 228.13125 157.454315 
" style="fill:none;stroke:#000000;stroke-linecap:square;stroke-opacity:0.7;stroke-width:1.5;"/>
    <defs>
     <path d="M -0 3 
L 3 -3 
L -3 -3 
z
" id="mdc6768e4c4" style="stroke:#000000;stroke-linejoin:miter;stroke-opacity:0.7;"/>
    </defs>
    <g clip-path="url(#pb55afad9b3)">
     <use style="fill-opacity:0.7;stroke:#000000;stroke-linejoin:miter;stroke-opacity:0.7;" x="65.270234" xlink:href="#mdc6768e4c4" y="231.596762"/>
     <use style="fill-opacity:0.7;stroke:#000000;stroke-linejoin:miter;stroke-opacity:0.7;" x="82.303664" xlink:href="#mdc6768e4c4" y="201.401544"/>
     <use style="fill-opacity:0.7;stroke:#000000;stroke-linejoin:miter;stroke-opacity:0.7;" x="98.519262" xlink:href="#mdc6768e4c4" y="191.336472"/>
     <use style="fill-opacity:0.7;stroke:#000000;stroke-linejoin:miter;stroke-opacity:0.7;" x="122.602952" xlink:href="#mdc6768e4c4" y="180.114185"/>
     <use style="fill-opacity:0.7;stroke:#000000;stroke-linejoin:miter;stroke-opacity:0.7;" x="175.479905" xlink:href="#mdc6768e4c4" y="166.765853"/>
     <use style="fill-opacity:0.7;stroke:#000000;stroke-linejoin:miter;stroke-opacity:0.7;" x="228.13125" xlink:href="#mdc6768e4c4" y="157.454315"/>
    </g>
   </g>
   <g id="line2d_11">
    <path clip-path="url(#pb55afad9b3)" d="M 84.096178 225.376541 
L 100.876963 216.053883 
L 123.251343 194.744949 
L 156.812913 178.763249 
L 194.56968 169.440591 
" style="fill:none;stroke:#1f77b4;stroke-linecap:square;stroke-opacity:0.7;stroke-width:1.5;"/>
    <defs>
     <path d="M 0 3 
C 0.795609 3 1.55874 2.683901 2.12132 2.12132 
C 2.683901 1.55874 3 0.795609 3 0 
C 3 -0.795609 2.683901 -1.55874 2.12132 -2.12132 
C 1.55874 -2.683901 0.795609 -3 0 -3 
C -0.795609 -3 -1.55874 -2.683901 -2.12132 -2.12132 
C -2.683901 -1.55874 -3 -0.795609 -3 0 
C -3 0.795609 -2.683901 1.55874 -2.12132 2.12132 
C -1.55874 2.683901 -0.795609 3 0 3 
z
" id="m089080dad3" style="stroke:#1f77b4;stroke-opacity:0.7;"/>
    </defs>
    <g clip-path="url(#pb55afad9b3)">
     <use style="fill:#1f77b4;fill-opacity:0.7;stroke:#1f77b4;stroke-opacity:0.7;" x="84.096178" xlink:href="#m089080dad3" y="225.376541"/>
     <use style="fill:#1f77b4;fill-opacity:0.7;stroke:#1f77b4;stroke-opacity:0.7;" x="100.876963" xlink:href="#m089080dad3" y="216.053883"/>
     <use style="fill:#1f77b4;fill-opacity:0.7;stroke:#1f77b4;stroke-opacity:0.7;" x="123.251343" xlink:href="#m089080dad3" y="194.744949"/>
     <use style="fill:#1f77b4;fill-opacity:0.7;stroke:#1f77b4;stroke-opacity:0.7;" x="156.812913" xlink:href="#m089080dad3" y="178.763249"/>
     <use style="fill:#1f77b4;fill-opacity:0.7;stroke:#1f77b4;stroke-opacity:0.7;" x="194.56968" xlink:href="#m089080dad3" y="169.440591"/>
    </g>
   </g>
   <g id="line2d_12">
    <path clip-path="url(#pb55afad9b3)" d="M 113.462552 230.703774 
L 123.251343 217.385691 
L 142.828926 194.744949 
L 169.398502 184.090482 
L 204.358471 170.772399 
" style="fill:none;stroke:#1f77b4;stroke-linecap:square;stroke-opacity:0.7;stroke-width:1.5;"/>
    <defs>
     <path d="M -0 3 
L 3 -3 
L -3 -3 
z
" id="md7cb8ecfa8" style="stroke:#1f77b4;stroke-linejoin:miter;stroke-opacity:0.7;"/>
    </defs>
    <g clip-path="url(#pb55afad9b3)">
     <use style="fill:#1f77b4;fill-opacity:0.7;stroke:#1f77b4;stroke-linejoin:miter;stroke-opacity:0.7;" x="113.462552" xlink:href="#md7cb8ecfa8" y="230.703774"/>
     <use style="fill:#1f77b4;fill-opacity:0.7;stroke:#1f77b4;stroke-linejoin:miter;stroke-opacity:0.7;" x="123.251343" xlink:href="#md7cb8ecfa8" y="217.385691"/>
     <use style="fill:#1f77b4;fill-opacity:0.7;stroke:#1f77b4;stroke-linejoin:miter;stroke-opacity:0.7;" x="142.828926" xlink:href="#md7cb8ecfa8" y="194.744949"/>
     <use style="fill:#1f77b4;fill-opacity:0.7;stroke:#1f77b4;stroke-linejoin:miter;stroke-opacity:0.7;" x="169.398502" xlink:href="#md7cb8ecfa8" y="184.090482"/>
     <use style="fill:#1f77b4;fill-opacity:0.7;stroke:#1f77b4;stroke-linejoin:miter;stroke-opacity:0.7;" x="204.358471" xlink:href="#md7cb8ecfa8" y="170.772399"/>
    </g>
   </g>
   <g id="line2d_13">
    <path clip-path="url(#pb55afad9b3)" d="M 58.925 318.603125 
L 228.13125 157.454315 
" style="fill:none;stroke:#000000;stroke-dasharray:5.55,2.4;stroke-dashoffset:0;stroke-width:1.5;"/>
   </g>
   <g id="patch_3">
    <path d="M 58.925 318.603125 
L 58.925 149.396875 
" style="fill:none;stroke:#000000;stroke-linecap:square;stroke-linejoin:miter;stroke-width:0.8;"/>
   </g>
   <g id="patch_4">
    <path d="M 228.13125 318.603125 
L 228.13125 149.396875 
" style="fill:none;stroke:#000000;stroke-linecap:square;stroke-linejoin:miter;stroke-width:0.8;"/>
   </g>
   <g id="patch_5">
    <path d="M 58.925 318.603125 
L 228.13125 318.603125 
" style="fill:none;stroke:#000000;stroke-linecap:square;stroke-linejoin:miter;stroke-width:0.8;"/>
   </g>
   <g id="patch_6">
    <path d="M 58.925 149.396875 
L 228.13125 149.396875 
" style="fill:none;stroke:#000000;stroke-linecap:square;stroke-linejoin:miter;stroke-width:0.8;"/>
   </g>
   <g id="legend_1">
    <g id="patch_7">
     <path d="M -12.8175 431.113125 
L 473.540625 431.113125 
Q 475.940625 431.113125 475.940625 428.713125 
L 475.940625 394.685625 
Q 475.940625 392.285625 473.540625 392.285625 
L -12.8175 392.285625 
Q -15.2175 392.285625 -15.2175 394.685625 
L -15.2175 428.713125 
Q -15.2175 431.113125 -12.8175 431.113125 
z
" style="fill:#ffffff;opacity:0.8;stroke:#cccccc;stroke-linejoin:miter;"/>
    </g>
    <g id="line2d_14">
     <path d="M -1 402.00375 
L 13.5825 402.00375 
" style="fill:none;stroke:#808080;stroke-linecap:square;stroke-opacity:0.7;stroke-width:1.5;"/>
    </g>
    <g id="line2d_15">
     <g>
      <use style="fill:#808080;fill-opacity:0.7;stroke:#808080;stroke-opacity:0.7;" x="1.5825" xlink:href="#m3264c55434" y="402.00375"/>
     </g>
    </g>
    <g id="text_9">
     <!-- 1: Aly 2011, C -->
     <defs>
      <path d="M 11.71875 12.40625 
L 22.015625 12.40625 
L 22.015625 0 
L 11.71875 0 
z
M 11.71875 51.703125 
L 22.015625 51.703125 
L 22.015625 39.3125 
L 11.71875 39.3125 
z
" id="DejaVuSans-58"/>
      <path d="M 34.1875 63.1875 
L 20.796875 26.90625 
L 47.609375 26.90625 
z
M 28.609375 72.90625 
L 39.796875 72.90625 
L 67.578125 0 
L 57.328125 0 
L 50.6875 18.703125 
L 17.828125 18.703125 
L 11.1875 0 
L 0.78125 0 
z
" id="DejaVuSans-65"/>
      <path d="M 32.171875 -5.078125 
Q 28.375 -14.84375 24.75 -17.8125 
Q 21.140625 -20.796875 15.09375 -20.796875 
L 7.90625 -20.796875 
L 7.90625 -13.28125 
L 13.1875 -13.28125 
Q 16.890625 -13.28125 18.9375 -11.515625 
Q 21 -9.765625 23.484375 -3.21875 
L 25.09375 0.875 
L 2.984375 54.6875 
L 12.5 54.6875 
L 29.59375 11.921875 
L 46.6875 54.6875 
L 56.203125 54.6875 
z
" id="DejaVuSans-121"/>
      <path d="M 19.1875 8.296875 
L 53.609375 8.296875 
L 53.609375 0 
L 7.328125 0 
L 7.328125 8.296875 
Q 12.9375 14.109375 22.625 23.890625 
Q 32.328125 33.6875 34.8125 36.53125 
Q 39.546875 41.84375 41.421875 45.53125 
Q 43.3125 49.21875 43.3125 52.78125 
Q 43.3125 58.59375 39.234375 62.25 
Q 35.15625 65.921875 28.609375 65.921875 
Q 23.96875 65.921875 18.8125 64.3125 
Q 13.671875 62.703125 7.8125 59.421875 
L 7.8125 69.390625 
Q 13.765625 71.78125 18.9375 73 
Q 24.125 74.21875 28.421875 74.21875 
Q 39.75 74.21875 46.484375 68.546875 
Q 53.21875 62.890625 53.21875 53.421875 
Q 53.21875 48.921875 51.53125 44.890625 
Q 49.859375 40.875 45.40625 35.40625 
Q 44.1875 33.984375 37.640625 27.21875 
Q 31.109375 20.453125 19.1875 8.296875 
z
" id="DejaVuSans-50"/>
      <path d="M 11.71875 12.40625 
L 22.015625 12.40625 
L 22.015625 4 
L 14.015625 -11.625 
L 7.71875 -11.625 
L 11.71875 4 
z
" id="DejaVuSans-44"/>
      <path d="M 64.40625 67.28125 
L 64.40625 56.890625 
Q 59.421875 61.53125 53.78125 63.8125 
Q 48.140625 66.109375 41.796875 66.109375 
Q 29.296875 66.109375 22.65625 58.46875 
Q 16.015625 50.828125 16.015625 36.375 
Q 16.015625 21.96875 22.65625 14.328125 
Q 29.296875 6.6875 41.796875 6.6875 
Q 48.140625 6.6875 53.78125 8.984375 
Q 59.421875 11.28125 64.40625 15.921875 
L 64.40625 5.609375 
Q 59.234375 2.09375 53.4375 0.328125 
Q 47.65625 -1.421875 41.21875 -1.421875 
Q 24.65625 -1.421875 15.125 8.703125 
Q 5.609375 18.84375 5.609375 36.375 
Q 5.609375 53.953125 15.125 64.078125 
Q 24.65625 74.21875 41.21875 74.21875 
Q 47.75 74.21875 53.53125 72.484375 
Q 59.328125 70.75 64.40625 67.28125 
z
" id="DejaVuSans-67"/>
     </defs>
     <g transform="translate(23.1825 406.20375)scale(0.12 -0.12)">
      <use xlink:href="#DejaVuSans-49"/>
      <use x="63.623047" xlink:href="#DejaVuSans-58"/>
      <use x="97.314453" xlink:href="#DejaVuSans-32"/>
      <use x="129.101562" xlink:href="#DejaVuSans-65"/>
      <use x="197.509766" xlink:href="#DejaVuSans-108"/>
      <use x="225.292969" xlink:href="#DejaVuSans-121"/>
      <use x="284.472656" xlink:href="#DejaVuSans-32"/>
      <use x="316.259766" xlink:href="#DejaVuSans-50"/>
      <use x="379.882812" xlink:href="#DejaVuSans-48"/>
      <use x="443.505859" xlink:href="#DejaVuSans-49"/>
      <use x="507.128906" xlink:href="#DejaVuSans-49"/>
      <use x="570.751953" xlink:href="#DejaVuSans-44"/>
      <use x="602.539062" xlink:href="#DejaVuSans-32"/>
      <use x="634.326172" xlink:href="#DejaVuSans-67"/>
     </g>
    </g>
    <g id="line2d_16">
     <path d="M -1 419.6175 
L 13.5825 419.6175 
" style="fill:none;stroke:#808080;stroke-linecap:square;stroke-opacity:0.7;stroke-width:1.5;"/>
    </g>
    <g id="line2d_17">
     <g>
      <use style="fill:#808080;fill-opacity:0.7;stroke:#808080;stroke-linejoin:miter;stroke-opacity:0.7;" x="1.5825" xlink:href="#m04413a103b" y="419.6175"/>
     </g>
    </g>
    <g id="text_10">
     <!-- 2: Aly 2011, F -->
     <g transform="translate(23.1825 423.8175)scale(0.12 -0.12)">
      <use xlink:href="#DejaVuSans-50"/>
      <use x="63.623047" xlink:href="#DejaVuSans-58"/>
      <use x="97.314453" xlink:href="#DejaVuSans-32"/>
      <use x="129.101562" xlink:href="#DejaVuSans-65"/>
      <use x="197.509766" xlink:href="#DejaVuSans-108"/>
      <use x="225.292969" xlink:href="#DejaVuSans-121"/>
      <use x="284.472656" xlink:href="#DejaVuSans-32"/>
      <use x="316.259766" xlink:href="#DejaVuSans-50"/>
      <use x="379.882812" xlink:href="#DejaVuSans-48"/>
      <use x="443.505859" xlink:href="#DejaVuSans-49"/>
      <use x="507.128906" xlink:href="#DejaVuSans-49"/>
      <use x="570.751953" xlink:href="#DejaVuSans-44"/>
      <use x="602.539062" xlink:href="#DejaVuSans-32"/>
      <use x="634.326172" xlink:href="#DejaVuSans-70"/>
     </g>
    </g>
    <g id="line2d_18">
     <path d="M 131.679375 402.00375 
L 155.679375 402.00375 
" style="fill:none;stroke:#000000;stroke-linecap:square;stroke-opacity:0.7;stroke-width:1.5;"/>
    </g>
    <g id="line2d_19">
     <g>
      <use style="fill-opacity:0.7;stroke:#000000;stroke-opacity:0.7;" x="143.679375" xlink:href="#mb57d529148" y="402.00375"/>
     </g>
    </g>
    <g id="text_11">
     <!-- 3: MacPherson 2008, C -->
     <defs>
      <path d="M 40.578125 39.3125 
Q 47.65625 37.796875 51.625 33 
Q 55.609375 28.21875 55.609375 21.1875 
Q 55.609375 10.40625 48.1875 4.484375 
Q 40.765625 -1.421875 27.09375 -1.421875 
Q 22.515625 -1.421875 17.65625 -0.515625 
Q 12.796875 0.390625 7.625 2.203125 
L 7.625 11.71875 
Q 11.71875 9.328125 16.59375 8.109375 
Q 21.484375 6.890625 26.8125 6.890625 
Q 36.078125 6.890625 40.9375 10.546875 
Q 45.796875 14.203125 45.796875 21.1875 
Q 45.796875 27.640625 41.28125 31.265625 
Q 36.765625 34.90625 28.71875 34.90625 
L 20.21875 34.90625 
L 20.21875 43.015625 
L 29.109375 43.015625 
Q 36.375 43.015625 40.234375 45.921875 
Q 44.09375 48.828125 44.09375 54.296875 
Q 44.09375 59.90625 40.109375 62.90625 
Q 36.140625 65.921875 28.71875 65.921875 
Q 24.65625 65.921875 20.015625 65.03125 
Q 15.375 64.15625 9.8125 62.3125 
L 9.8125 71.09375 
Q 15.4375 72.65625 20.34375 73.4375 
Q 25.25 74.21875 29.59375 74.21875 
Q 40.828125 74.21875 47.359375 69.109375 
Q 53.90625 64.015625 53.90625 55.328125 
Q 53.90625 49.265625 50.4375 45.09375 
Q 46.96875 40.921875 40.578125 39.3125 
z
" id="DejaVuSans-51"/>
      <path d="M 9.8125 72.90625 
L 24.515625 72.90625 
L 43.109375 23.296875 
L 61.8125 72.90625 
L 76.515625 72.90625 
L 76.515625 0 
L 66.890625 0 
L 66.890625 64.015625 
L 48.09375 14.015625 
L 38.1875 14.015625 
L 19.390625 64.015625 
L 19.390625 0 
L 9.8125 0 
z
" id="DejaVuSans-77"/>
      <path d="M 48.78125 52.59375 
L 48.78125 44.1875 
Q 44.96875 46.296875 41.140625 47.34375 
Q 37.3125 48.390625 33.40625 48.390625 
Q 24.65625 48.390625 19.8125 42.84375 
Q 14.984375 37.3125 14.984375 27.296875 
Q 14.984375 17.28125 19.8125 11.734375 
Q 24.65625 6.203125 33.40625 6.203125 
Q 37.3125 6.203125 41.140625 7.25 
Q 44.96875 8.296875 48.78125 10.40625 
L 48.78125 2.09375 
Q 45.015625 0.34375 40.984375 -0.53125 
Q 36.96875 -1.421875 32.421875 -1.421875 
Q 20.0625 -1.421875 12.78125 6.34375 
Q 5.515625 14.109375 5.515625 27.296875 
Q 5.515625 40.671875 12.859375 48.328125 
Q 20.21875 56 33.015625 56 
Q 37.15625 56 41.109375 55.140625 
Q 45.0625 54.296875 48.78125 52.59375 
z
" id="DejaVuSans-99"/>
      <path d="M 19.671875 64.796875 
L 19.671875 37.40625 
L 32.078125 37.40625 
Q 38.96875 37.40625 42.71875 40.96875 
Q 46.484375 44.53125 46.484375 51.125 
Q 46.484375 57.671875 42.71875 61.234375 
Q 38.96875 64.796875 32.078125 64.796875 
z
M 9.8125 72.90625 
L 32.078125 72.90625 
Q 44.34375 72.90625 50.609375 67.359375 
Q 56.890625 61.8125 56.890625 51.125 
Q 56.890625 40.328125 50.609375 34.8125 
Q 44.34375 29.296875 32.078125 29.296875 
L 19.671875 29.296875 
L 19.671875 0 
L 9.8125 0 
z
" id="DejaVuSans-80"/>
      <path d="M 54.890625 33.015625 
L 54.890625 0 
L 45.90625 0 
L 45.90625 32.71875 
Q 45.90625 40.484375 42.875 44.328125 
Q 39.84375 48.1875 33.796875 48.1875 
Q 26.515625 48.1875 22.3125 43.546875 
Q 18.109375 38.921875 18.109375 30.90625 
L 18.109375 0 
L 9.078125 0 
L 9.078125 75.984375 
L 18.109375 75.984375 
L 18.109375 46.1875 
Q 21.34375 51.125 25.703125 53.5625 
Q 30.078125 56 35.796875 56 
Q 45.21875 56 50.046875 50.171875 
Q 54.890625 44.34375 54.890625 33.015625 
z
" id="DejaVuSans-104"/>
      <path d="M 30.609375 48.390625 
Q 23.390625 48.390625 19.1875 42.75 
Q 14.984375 37.109375 14.984375 27.296875 
Q 14.984375 17.484375 19.15625 11.84375 
Q 23.34375 6.203125 30.609375 6.203125 
Q 37.796875 6.203125 41.984375 11.859375 
Q 46.1875 17.53125 46.1875 27.296875 
Q 46.1875 37.015625 41.984375 42.703125 
Q 37.796875 48.390625 30.609375 48.390625 
z
M 30.609375 56 
Q 42.328125 56 49.015625 48.375 
Q 55.71875 40.765625 55.71875 27.296875 
Q 55.71875 13.875 49.015625 6.21875 
Q 42.328125 -1.421875 30.609375 -1.421875 
Q 18.84375 -1.421875 12.171875 6.21875 
Q 5.515625 13.875 5.515625 27.296875 
Q 5.515625 40.765625 12.171875 48.375 
Q 18.84375 56 30.609375 56 
z
" id="DejaVuSans-111"/>
      <path d="M 54.890625 33.015625 
L 54.890625 0 
L 45.90625 0 
L 45.90625 32.71875 
Q 45.90625 40.484375 42.875 44.328125 
Q 39.84375 48.1875 33.796875 48.1875 
Q 26.515625 48.1875 22.3125 43.546875 
Q 18.109375 38.921875 18.109375 30.90625 
L 18.109375 0 
L 9.078125 0 
L 9.078125 54.6875 
L 18.109375 54.6875 
L 18.109375 46.1875 
Q 21.34375 51.125 25.703125 53.5625 
Q 30.078125 56 35.796875 56 
Q 45.21875 56 50.046875 50.171875 
Q 54.890625 44.34375 54.890625 33.015625 
z
" id="DejaVuSans-110"/>
      <path d="M 31.78125 34.625 
Q 24.75 34.625 20.71875 30.859375 
Q 16.703125 27.09375 16.703125 20.515625 
Q 16.703125 13.921875 20.71875 10.15625 
Q 24.75 6.390625 31.78125 6.390625 
Q 38.8125 6.390625 42.859375 10.171875 
Q 46.921875 13.96875 46.921875 20.515625 
Q 46.921875 27.09375 42.890625 30.859375 
Q 38.875 34.625 31.78125 34.625 
z
M 21.921875 38.8125 
Q 15.578125 40.375 12.03125 44.71875 
Q 8.5 49.078125 8.5 55.328125 
Q 8.5 64.0625 14.71875 69.140625 
Q 20.953125 74.21875 31.78125 74.21875 
Q 42.671875 74.21875 48.875 69.140625 
Q 55.078125 64.0625 55.078125 55.328125 
Q 55.078125 49.078125 51.53125 44.71875 
Q 48 40.375 41.703125 38.8125 
Q 48.828125 37.15625 52.796875 32.3125 
Q 56.78125 27.484375 56.78125 20.515625 
Q 56.78125 9.90625 50.3125 4.234375 
Q 43.84375 -1.421875 31.78125 -1.421875 
Q 19.734375 -1.421875 13.25 4.234375 
Q 6.78125 9.90625 6.78125 20.515625 
Q 6.78125 27.484375 10.78125 32.3125 
Q 14.796875 37.15625 21.921875 38.8125 
z
M 18.3125 54.390625 
Q 18.3125 48.734375 21.84375 45.5625 
Q 25.390625 42.390625 31.78125 42.390625 
Q 38.140625 42.390625 41.71875 45.5625 
Q 45.3125 48.734375 45.3125 54.390625 
Q 45.3125 60.0625 41.71875 63.234375 
Q 38.140625 66.40625 31.78125 66.40625 
Q 25.390625 66.40625 21.84375 63.234375 
Q 18.3125 60.0625 18.3125 54.390625 
z
" id="DejaVuSans-56"/>
     </defs>
     <g transform="translate(165.279375 406.20375)scale(0.12 -0.12)">
      <use xlink:href="#DejaVuSans-51"/>
      <use x="63.623047" xlink:href="#DejaVuSans-58"/>
      <use x="97.314453" xlink:href="#DejaVuSans-32"/>
      <use x="129.101562" xlink:href="#DejaVuSans-77"/>
      <use x="215.380859" xlink:href="#DejaVuSans-97"/>
      <use x="276.660156" xlink:href="#DejaVuSans-99"/>
      <use x="331.640625" xlink:href="#DejaVuSans-80"/>
      <use x="391.943359" xlink:href="#DejaVuSans-104"/>
      <use x="455.322266" xlink:href="#DejaVuSans-101"/>
      <use x="516.845703" xlink:href="#DejaVuSans-114"/>
      <use x="557.958984" xlink:href="#DejaVuSans-115"/>
      <use x="610.058594" xlink:href="#DejaVuSans-111"/>
      <use x="671.240234" xlink:href="#DejaVuSans-110"/>
      <use x="734.619141" xlink:href="#DejaVuSans-32"/>
      <use x="766.40625" xlink:href="#DejaVuSans-50"/>
      <use x="830.029297" xlink:href="#DejaVuSans-48"/>
      <use x="893.652344" xlink:href="#DejaVuSans-48"/>
      <use x="957.275391" xlink:href="#DejaVuSans-56"/>
      <use x="1020.898438" xlink:href="#DejaVuSans-44"/>
      <use x="1052.685547" xlink:href="#DejaVuSans-32"/>
      <use x="1084.472656" xlink:href="#DejaVuSans-67"/>
     </g>
    </g>
    <g id="line2d_20">
     <path d="M 131.679375 419.6175 
L 155.679375 419.6175 
" style="fill:none;stroke:#000000;stroke-linecap:square;stroke-opacity:0.7;stroke-width:1.5;"/>
    </g>
    <g id="line2d_21">
     <g>
      <use style="fill-opacity:0.7;stroke:#000000;stroke-linejoin:miter;stroke-opacity:0.7;" x="143.679375" xlink:href="#mdc6768e4c4" y="419.6175"/>
     </g>
    </g>
    <g id="text_12">
     <!-- 4: MacPherson 2008, F -->
     <defs>
      <path d="M 37.796875 64.3125 
L 12.890625 25.390625 
L 37.796875 25.390625 
z
M 35.203125 72.90625 
L 47.609375 72.90625 
L 47.609375 25.390625 
L 58.015625 25.390625 
L 58.015625 17.1875 
L 47.609375 17.1875 
L 47.609375 0 
L 37.796875 0 
L 37.796875 17.1875 
L 4.890625 17.1875 
L 4.890625 26.703125 
z
" id="DejaVuSans-52"/>
     </defs>
     <g transform="translate(165.279375 423.8175)scale(0.12 -0.12)">
      <use xlink:href="#DejaVuSans-52"/>
      <use x="63.623047" xlink:href="#DejaVuSans-58"/>
      <use x="97.314453" xlink:href="#DejaVuSans-32"/>
      <use x="129.101562" xlink:href="#DejaVuSans-77"/>
      <use x="215.380859" xlink:href="#DejaVuSans-97"/>
      <use x="276.660156" xlink:href="#DejaVuSans-99"/>
      <use x="331.640625" xlink:href="#DejaVuSans-80"/>
      <use x="391.943359" xlink:href="#DejaVuSans-104"/>
      <use x="455.322266" xlink:href="#DejaVuSans-101"/>
      <use x="516.845703" xlink:href="#DejaVuSans-114"/>
      <use x="557.958984" xlink:href="#DejaVuSans-115"/>
      <use x="610.058594" xlink:href="#DejaVuSans-111"/>
      <use x="671.240234" xlink:href="#DejaVuSans-110"/>
      <use x="734.619141" xlink:href="#DejaVuSans-32"/>
      <use x="766.40625" xlink:href="#DejaVuSans-50"/>
      <use x="830.029297" xlink:href="#DejaVuSans-48"/>
      <use x="893.652344" xlink:href="#DejaVuSans-48"/>
      <use x="957.275391" xlink:href="#DejaVuSans-56"/>
      <use x="1020.898438" xlink:href="#DejaVuSans-44"/>
      <use x="1052.685547" xlink:href="#DejaVuSans-32"/>
      <use x="1084.472656" xlink:href="#DejaVuSans-70"/>
     </g>
    </g>
    <g id="line2d_22">
     <path d="M 327.793125 402.00375 
L 351.793125 402.00375 
" style="fill:none;stroke:#1f77b4;stroke-linecap:square;stroke-opacity:0.7;stroke-width:1.5;"/>
    </g>
    <g id="line2d_23">
     <g>
      <use style="fill:#1f77b4;fill-opacity:0.7;stroke:#1f77b4;stroke-opacity:0.7;" x="339.793125" xlink:href="#m089080dad3" y="402.00375"/>
     </g>
    </g>
    <g id="text_13">
     <!-- 5: Farovik 2008, C -->
     <defs>
      <path d="M 2.984375 54.6875 
L 12.5 54.6875 
L 29.59375 8.796875 
L 46.6875 54.6875 
L 56.203125 54.6875 
L 35.6875 0 
L 23.484375 0 
z
" id="DejaVuSans-118"/>
      <path d="M 9.078125 75.984375 
L 18.109375 75.984375 
L 18.109375 31.109375 
L 44.921875 54.6875 
L 56.390625 54.6875 
L 27.390625 29.109375 
L 57.625 0 
L 45.90625 0 
L 18.109375 26.703125 
L 18.109375 0 
L 9.078125 0 
z
" id="DejaVuSans-107"/>
     </defs>
     <g transform="translate(361.393125 406.20375)scale(0.12 -0.12)">
      <use xlink:href="#DejaVuSans-53"/>
      <use x="63.623047" xlink:href="#DejaVuSans-58"/>
      <use x="97.314453" xlink:href="#DejaVuSans-32"/>
      <use x="129.101562" xlink:href="#DejaVuSans-70"/>
      <use x="186.480469" xlink:href="#DejaVuSans-97"/>
      <use x="247.759766" xlink:href="#DejaVuSans-114"/>
      <use x="288.841797" xlink:href="#DejaVuSans-111"/>
      <use x="350.023438" xlink:href="#DejaVuSans-118"/>
      <use x="409.203125" xlink:href="#DejaVuSans-105"/>
      <use x="436.986328" xlink:href="#DejaVuSans-107"/>
      <use x="494.896484" xlink:href="#DejaVuSans-32"/>
      <use x="526.683594" xlink:href="#DejaVuSans-50"/>
      <use x="590.306641" xlink:href="#DejaVuSans-48"/>
      <use x="653.929688" xlink:href="#DejaVuSans-48"/>
      <use x="717.552734" xlink:href="#DejaVuSans-56"/>
      <use x="781.175781" xlink:href="#DejaVuSans-44"/>
      <use x="812.962891" xlink:href="#DejaVuSans-32"/>
      <use x="844.75" xlink:href="#DejaVuSans-67"/>
     </g>
    </g>
    <g id="line2d_24">
     <path d="M 327.793125 419.6175 
L 351.793125 419.6175 
" style="fill:none;stroke:#1f77b4;stroke-linecap:square;stroke-opacity:0.7;stroke-width:1.5;"/>
    </g>
    <g id="line2d_25">
     <g>
      <use style="fill:#1f77b4;fill-opacity:0.7;stroke:#1f77b4;stroke-linejoin:miter;stroke-opacity:0.7;" x="339.793125" xlink:href="#md7cb8ecfa8" y="419.6175"/>
     </g>
    </g>
    <g id="text_14">
     <!-- 6: Farovik 2008, F -->
     <defs>
      <path d="M 33.015625 40.375 
Q 26.375 40.375 22.484375 35.828125 
Q 18.609375 31.296875 18.609375 23.390625 
Q 18.609375 15.53125 22.484375 10.953125 
Q 26.375 6.390625 33.015625 6.390625 
Q 39.65625 6.390625 43.53125 10.953125 
Q 47.40625 15.53125 47.40625 23.390625 
Q 47.40625 31.296875 43.53125 35.828125 
Q 39.65625 40.375 33.015625 40.375 
z
M 52.59375 71.296875 
L 52.59375 62.3125 
Q 48.875 64.0625 45.09375 64.984375 
Q 41.3125 65.921875 37.59375 65.921875 
Q 27.828125 65.921875 22.671875 59.328125 
Q 17.53125 52.734375 16.796875 39.40625 
Q 19.671875 43.65625 24.015625 45.921875 
Q 28.375 48.1875 33.59375 48.1875 
Q 44.578125 48.1875 50.953125 41.515625 
Q 57.328125 34.859375 57.328125 23.390625 
Q 57.328125 12.15625 50.6875 5.359375 
Q 44.046875 -1.421875 33.015625 -1.421875 
Q 20.359375 -1.421875 13.671875 8.265625 
Q 6.984375 17.96875 6.984375 36.375 
Q 6.984375 53.65625 15.1875 63.9375 
Q 23.390625 74.21875 37.203125 74.21875 
Q 40.921875 74.21875 44.703125 73.484375 
Q 48.484375 72.75 52.59375 71.296875 
z
" id="DejaVuSans-54"/>
     </defs>
     <g transform="translate(361.393125 423.8175)scale(0.12 -0.12)">
      <use xlink:href="#DejaVuSans-54"/>
      <use x="63.623047" xlink:href="#DejaVuSans-58"/>
      <use x="97.314453" xlink:href="#DejaVuSans-32"/>
      <use x="129.101562" xlink:href="#DejaVuSans-70"/>
      <use x="186.480469" xlink:href="#DejaVuSans-97"/>
      <use x="247.759766" xlink:href="#DejaVuSans-114"/>
      <use x="288.841797" xlink:href="#DejaVuSans-111"/>
      <use x="350.023438" xlink:href="#DejaVuSans-118"/>
      <use x="409.203125" xlink:href="#DejaVuSans-105"/>
      <use x="436.986328" xlink:href="#DejaVuSans-107"/>
      <use x="494.896484" xlink:href="#DejaVuSans-32"/>
      <use x="526.683594" xlink:href="#DejaVuSans-50"/>
      <use x="590.306641" xlink:href="#DejaVuSans-48"/>
      <use x="653.929688" xlink:href="#DejaVuSans-48"/>
      <use x="717.552734" xlink:href="#DejaVuSans-56"/>
      <use x="781.175781" xlink:href="#DejaVuSans-44"/>
      <use x="812.962891" xlink:href="#DejaVuSans-32"/>
      <use x="844.75" xlink:href="#DejaVuSans-70"/>
     </g>
    </g>
   </g>
  </g>
  <g id="axes_2">
   <g id="patch_8">
    <path d="M 287.99375 318.603125 
L 457.2 318.603125 
L 457.2 149.396875 
L 287.99375 149.396875 
z
" style="fill:#ffffff;"/>
   </g>
   <g id="patch_9">
    <path clip-path="url(#p5c1f1472bb)" d="M 296.05119 318.603125 
L 304.108631 318.603125 
L 304.108631 294.227675 
L 296.05119 294.227675 
z
" style="fill:#808080;opacity:0.7;"/>
   </g>
   <g id="patch_10">
    <path clip-path="url(#p5c1f1472bb)" d="M 320.223512 318.603125 
L 328.280952 318.603125 
L 328.280952 282.344643 
L 320.223512 282.344643 
z
" style="opacity:0.7;"/>
   </g>
   <g id="patch_11">
    <path clip-path="url(#p5c1f1472bb)" d="M 344.395833 318.603125 
L 352.453274 318.603125 
L 352.453274 158.461496 
L 344.395833 158.461496 
z
" style="fill:#1f77b4;opacity:0.7;"/>
   </g>
   <g id="patch_12">
    <path clip-path="url(#p5c1f1472bb)" d="M 392.740476 318.603125 
L 400.797917 318.603125 
L 400.797917 262.837835 
L 392.740476 262.837835 
z
" style="fill:#808080;opacity:0.7;"/>
   </g>
   <g id="patch_13">
    <path clip-path="url(#p5c1f1472bb)" d="M 416.912798 318.603125 
L 424.970238 318.603125 
L 424.970238 187.779842 
L 416.912798 187.779842 
z
" style="opacity:0.7;"/>
   </g>
   <g id="patch_14">
    <path clip-path="url(#p5c1f1472bb)" d="M 441.085119 318.603125 
L 449.14256 318.603125 
L 449.14256 318.603125 
L 441.085119 318.603125 
z
" style="fill:#1f77b4;opacity:0.7;"/>
   </g>
   <g id="matplotlib.axis_3">
    <g id="xtick_4">
     <g id="line2d_26">
      <g>
       <use style="stroke:#000000;stroke-width:0.8;" x="300.079911" xlink:href="#mc094b6a0e0" y="318.603125"/>
      </g>
     </g>
     <g id="text_15">
      <!-- 1 -->
      <g transform="translate(295.626161 336.240937)scale(0.14 -0.14)">
       <use xlink:href="#DejaVuSans-49"/>
      </g>
     </g>
    </g>
    <g id="xtick_5">
     <g id="line2d_27">
      <g>
       <use style="stroke:#000000;stroke-width:0.8;" x="324.252232" xlink:href="#mc094b6a0e0" y="318.603125"/>
      </g>
     </g>
     <g id="text_16">
      <!-- 2 -->
      <g transform="translate(319.798482 336.240937)scale(0.14 -0.14)">
       <use xlink:href="#DejaVuSans-50"/>
      </g>
     </g>
    </g>
    <g id="xtick_6">
     <g id="line2d_28">
      <g>
       <use style="stroke:#000000;stroke-width:0.8;" x="348.424554" xlink:href="#mc094b6a0e0" y="318.603125"/>
      </g>
     </g>
     <g id="text_17">
      <!-- 3 -->
      <g transform="translate(343.970804 336.240937)scale(0.14 -0.14)">
       <use xlink:href="#DejaVuSans-51"/>
      </g>
     </g>
    </g>
    <g id="xtick_7">
     <g id="line2d_29">
      <g>
       <use style="stroke:#000000;stroke-width:0.8;" x="396.769196" xlink:href="#mc094b6a0e0" y="318.603125"/>
      </g>
     </g>
     <g id="text_18">
      <!-- 1 -->
      <g transform="translate(392.315446 336.240937)scale(0.14 -0.14)">
       <use xlink:href="#DejaVuSans-49"/>
      </g>
     </g>
    </g>
    <g id="xtick_8">
     <g id="line2d_30">
      <g>
       <use style="stroke:#000000;stroke-width:0.8;" x="420.941518" xlink:href="#mc094b6a0e0" y="318.603125"/>
      </g>
     </g>
     <g id="text_19">
      <!-- 2 -->
      <g transform="translate(416.487768 336.240937)scale(0.14 -0.14)">
       <use xlink:href="#DejaVuSans-50"/>
      </g>
     </g>
    </g>
    <g id="xtick_9">
     <g id="line2d_31">
      <g>
       <use style="stroke:#000000;stroke-width:0.8;" x="445.113839" xlink:href="#mc094b6a0e0" y="318.603125"/>
      </g>
     </g>
     <g id="text_20">
      <!-- 3 -->
      <g transform="translate(440.660089 336.240937)scale(0.14 -0.14)">
       <use xlink:href="#DejaVuSans-51"/>
      </g>
     </g>
    </g>
   </g>
   <g id="matplotlib.axis_4">
    <g id="ytick_4">
     <g id="line2d_32">
      <g>
       <use style="stroke:#000000;stroke-width:0.8;" x="287.99375" xlink:href="#mc428d5b905" y="318.603125"/>
      </g>
     </g>
     <g id="text_21">
      <!-- 0.00 -->
      <g transform="translate(249.821875 323.922031)scale(0.14 -0.14)">
       <use xlink:href="#DejaVuSans-48"/>
       <use x="63.623047" xlink:href="#DejaVuSans-46"/>
       <use x="95.410156" xlink:href="#DejaVuSans-48"/>
       <use x="159.033203" xlink:href="#DejaVuSans-48"/>
      </g>
     </g>
    </g>
    <g id="ytick_5">
     <g id="line2d_33">
      <g>
       <use style="stroke:#000000;stroke-width:0.8;" x="287.99375" xlink:href="#mc428d5b905" y="234"/>
      </g>
     </g>
     <g id="text_22">
      <!-- 0.14 -->
      <g transform="translate(249.821875 239.318906)scale(0.14 -0.14)">
       <use xlink:href="#DejaVuSans-48"/>
       <use x="63.623047" xlink:href="#DejaVuSans-46"/>
       <use x="95.410156" xlink:href="#DejaVuSans-49"/>
       <use x="159.033203" xlink:href="#DejaVuSans-52"/>
      </g>
     </g>
    </g>
    <g id="ytick_6">
     <g id="line2d_34">
      <g>
       <use style="stroke:#000000;stroke-width:0.8;" x="287.99375" xlink:href="#mc428d5b905" y="149.396875"/>
      </g>
     </g>
     <g id="text_23">
      <!-- 0.28 -->
      <g transform="translate(249.821875 154.715781)scale(0.14 -0.14)">
       <use xlink:href="#DejaVuSans-48"/>
       <use x="63.623047" xlink:href="#DejaVuSans-46"/>
       <use x="95.410156" xlink:href="#DejaVuSans-50"/>
       <use x="159.033203" xlink:href="#DejaVuSans-56"/>
      </g>
     </g>
    </g>
   </g>
   <g id="patch_15">
    <path d="M 287.99375 318.603125 
L 287.99375 149.396875 
" style="fill:none;stroke:#000000;stroke-linecap:square;stroke-linejoin:miter;stroke-width:0.8;"/>
   </g>
   <g id="patch_16">
    <path d="M 457.2 318.603125 
L 457.2 149.396875 
" style="fill:none;stroke:#000000;stroke-linecap:square;stroke-linejoin:miter;stroke-width:0.8;"/>
   </g>
   <g id="patch_17">
    <path d="M 287.99375 318.603125 
L 457.2 318.603125 
" style="fill:none;stroke:#000000;stroke-linecap:square;stroke-linejoin:miter;stroke-width:0.8;"/>
   </g>
   <g id="patch_18">
    <path d="M 287.99375 149.396875 
L 457.2 149.396875 
" style="fill:none;stroke:#000000;stroke-linecap:square;stroke-linejoin:miter;stroke-width:0.8;"/>
   </g>
   <g id="text_24">
    <!-- R -->
    <defs>
     <path d="M 44.390625 34.1875 
Q 47.5625 33.109375 50.5625 29.59375 
Q 53.5625 26.078125 56.59375 19.921875 
L 66.609375 0 
L 56 0 
L 46.6875 18.703125 
Q 43.0625 26.03125 39.671875 28.421875 
Q 36.28125 30.8125 30.421875 30.8125 
L 19.671875 30.8125 
L 19.671875 0 
L 9.8125 0 
L 9.8125 72.90625 
L 32.078125 72.90625 
Q 44.578125 72.90625 50.734375 67.671875 
Q 56.890625 62.453125 56.890625 51.90625 
Q 56.890625 45.015625 53.6875 40.46875 
Q 50.484375 35.9375 44.390625 34.1875 
z
M 19.671875 64.796875 
L 19.671875 38.921875 
L 32.078125 38.921875 
Q 39.203125 38.921875 42.84375 42.21875 
Q 46.484375 45.515625 46.484375 51.90625 
Q 46.484375 58.296875 42.84375 61.546875 
Q 39.203125 64.796875 32.078125 64.796875 
z
" id="DejaVuSans-82"/>
    </defs>
    <g transform="translate(348.424554 391.120089)scale(0.15 -0.15)">
     <use xlink:href="#DejaVuSans-82"/>
    </g>
   </g>
   <g id="text_25">
    <!-- F -->
    <g transform="translate(445.113839 391.120089)scale(0.15 -0.15)">
     <use xlink:href="#DejaVuSans-70"/>
    </g>
   </g>
  </g>
 </g>
 <defs>
  <clipPath id="pb55afad9b3">
   <rect height="169.20625" width="169.20625" x="58.925" y="149.396875"/>
  </clipPath>
  <clipPath id="p5c1f1472bb">
   <rect height="169.20625" width="169.20625" x="287.99375" y="149.396875"/>
  </clipPath>
 </defs>
</svg>
