<?xml version="1.0" encoding="utf-8" standalone="no"?>
<!DOCTYPE svg PUBLIC "-//W3C//DTD SVG 1.1//EN"
  "http://www.w3.org/Graphics/SVG/1.1/DTD/svg11.dtd">
<!-- Created with matplotlib (https://matplotlib.org/) -->
<svg height="504pt" version="1.1" viewBox="0 0 504 504" width="504pt" xmlns="http://www.w3.org/2000/svg" xmlns:xlink="http://www.w3.org/1999/xlink">
 <defs>
  <style type="text/css">
*{stroke-linecap:butt;stroke-linejoin:round;white-space:pre;}
  </style>
 </defs>
 <g id="figure_1">
  <g id="patch_1">
   <path d="M 0 504 
L 504 504 
L 504 0 
L 0 0 
z
" style="fill:#ffffff;"/>
  </g>
  <g id="axes_1">
   <g id="patch_2">
    <path d="M 58.925 345.571875 
L 246.06875 345.571875 
L 246.06875 158.428125 
L 58.925 158.428125 
z
" style="fill:#ffffff;"/>
   </g>
   <g id="matplotlib.axis_1">
    <g id="xtick_1">
     <g id="line2d_1">
      <defs>
       <path d="M 0 0 
L 0 3.5 
" id="m08041b481f" style="stroke:#000000;stroke-width:0.8;"/>
      </defs>
      <g>
       <use style="stroke:#000000;stroke-width:0.8;" x="58.925" xlink:href="#m08041b481f" y="345.571875"/>
      </g>
     </g>
     <g id="text_1">
      <!-- 0.0 -->
      <defs>
       <path d="M 31.78125 66.40625 
Q 24.171875 66.40625 20.328125 58.90625 
Q 16.5 51.421875 16.5 36.375 
Q 16.5 21.390625 20.328125 13.890625 
Q 24.171875 6.390625 31.78125 6.390625 
Q 39.453125 6.390625 43.28125 13.890625 
Q 47.125 21.390625 47.125 36.375 
Q 47.125 51.421875 43.28125 58.90625 
Q 39.453125 66.40625 31.78125 66.40625 
z
M 31.78125 74.21875 
Q 44.046875 74.21875 50.515625 64.515625 
Q 56.984375 54.828125 56.984375 36.375 
Q 56.984375 17.96875 50.515625 8.265625 
Q 44.046875 -1.421875 31.78125 -1.421875 
Q 19.53125 -1.421875 13.0625 8.265625 
Q 6.59375 17.96875 6.59375 36.375 
Q 6.59375 54.828125 13.0625 64.515625 
Q 19.53125 74.21875 31.78125 74.21875 
z
" id="DejaVuSans-48"/>
       <path d="M 10.6875 12.40625 
L 21 12.40625 
L 21 0 
L 10.6875 0 
z
" id="DejaVuSans-46"/>
      </defs>
      <g transform="translate(47.792813 363.209687)scale(0.14 -0.14)">
       <use xlink:href="#DejaVuSans-48"/>
       <use x="63.623047" xlink:href="#DejaVuSans-46"/>
       <use x="95.410156" xlink:href="#DejaVuSans-48"/>
      </g>
     </g>
    </g>
    <g id="xtick_2">
     <g id="line2d_2">
      <g>
       <use style="stroke:#000000;stroke-width:0.8;" x="152.496875" xlink:href="#m08041b481f" y="345.571875"/>
      </g>
     </g>
     <g id="text_2">
      <!-- 0.5 -->
      <defs>
       <path d="M 10.796875 72.90625 
L 49.515625 72.90625 
L 49.515625 64.59375 
L 19.828125 64.59375 
L 19.828125 46.734375 
Q 21.96875 47.46875 24.109375 47.828125 
Q 26.265625 48.1875 28.421875 48.1875 
Q 40.625 48.1875 47.75 41.5 
Q 54.890625 34.8125 54.890625 23.390625 
Q 54.890625 11.625 47.5625 5.09375 
Q 40.234375 -1.421875 26.90625 -1.421875 
Q 22.3125 -1.421875 17.546875 -0.640625 
Q 12.796875 0.140625 7.71875 1.703125 
L 7.71875 11.625 
Q 12.109375 9.234375 16.796875 8.0625 
Q 21.484375 6.890625 26.703125 6.890625 
Q 35.15625 6.890625 40.078125 11.328125 
Q 45.015625 15.765625 45.015625 23.390625 
Q 45.015625 31 40.078125 35.4375 
Q 35.15625 39.890625 26.703125 39.890625 
Q 22.75 39.890625 18.8125 39.015625 
Q 14.890625 38.140625 10.796875 36.28125 
z
" id="DejaVuSans-53"/>
      </defs>
      <g transform="translate(141.364688 363.209687)scale(0.14 -0.14)">
       <use xlink:href="#DejaVuSans-48"/>
       <use x="63.623047" xlink:href="#DejaVuSans-46"/>
       <use x="95.410156" xlink:href="#DejaVuSans-53"/>
      </g>
     </g>
    </g>
    <g id="xtick_3">
     <g id="line2d_3">
      <g>
       <use style="stroke:#000000;stroke-width:0.8;" x="246.06875" xlink:href="#m08041b481f" y="345.571875"/>
      </g>
     </g>
     <g id="text_3">
      <!-- 1.0 -->
      <defs>
       <path d="M 12.40625 8.296875 
L 28.515625 8.296875 
L 28.515625 63.921875 
L 10.984375 60.40625 
L 10.984375 69.390625 
L 28.421875 72.90625 
L 38.28125 72.90625 
L 38.28125 8.296875 
L 54.390625 8.296875 
L 54.390625 0 
L 12.40625 0 
z
" id="DejaVuSans-49"/>
      </defs>
      <g transform="translate(234.936562 363.209687)scale(0.14 -0.14)">
       <use xlink:href="#DejaVuSans-49"/>
       <use x="63.623047" xlink:href="#DejaVuSans-46"/>
       <use x="95.410156" xlink:href="#DejaVuSans-48"/>
      </g>
     </g>
    </g>
    <g id="text_4">
     <!-- False alarm rate -->
     <defs>
      <path d="M 9.8125 72.90625 
L 51.703125 72.90625 
L 51.703125 64.59375 
L 19.671875 64.59375 
L 19.671875 43.109375 
L 48.578125 43.109375 
L 48.578125 34.8125 
L 19.671875 34.8125 
L 19.671875 0 
L 9.8125 0 
z
" id="DejaVuSans-70"/>
      <path d="M 34.28125 27.484375 
Q 23.390625 27.484375 19.1875 25 
Q 14.984375 22.515625 14.984375 16.5 
Q 14.984375 11.71875 18.140625 8.90625 
Q 21.296875 6.109375 26.703125 6.109375 
Q 34.1875 6.109375 38.703125 11.40625 
Q 43.21875 16.703125 43.21875 25.484375 
L 43.21875 27.484375 
z
M 52.203125 31.203125 
L 52.203125 0 
L 43.21875 0 
L 43.21875 8.296875 
Q 40.140625 3.328125 35.546875 0.953125 
Q 30.953125 -1.421875 24.3125 -1.421875 
Q 15.921875 -1.421875 10.953125 3.296875 
Q 6 8.015625 6 15.921875 
Q 6 25.140625 12.171875 29.828125 
Q 18.359375 34.515625 30.609375 34.515625 
L 43.21875 34.515625 
L 43.21875 35.40625 
Q 43.21875 41.609375 39.140625 45 
Q 35.0625 48.390625 27.6875 48.390625 
Q 23 48.390625 18.546875 47.265625 
Q 14.109375 46.140625 10.015625 43.890625 
L 10.015625 52.203125 
Q 14.9375 54.109375 19.578125 55.046875 
Q 24.21875 56 28.609375 56 
Q 40.484375 56 46.34375 49.84375 
Q 52.203125 43.703125 52.203125 31.203125 
z
" id="DejaVuSans-97"/>
      <path d="M 9.421875 75.984375 
L 18.40625 75.984375 
L 18.40625 0 
L 9.421875 0 
z
" id="DejaVuSans-108"/>
      <path d="M 44.28125 53.078125 
L 44.28125 44.578125 
Q 40.484375 46.53125 36.375 47.5 
Q 32.28125 48.484375 27.875 48.484375 
Q 21.1875 48.484375 17.84375 46.4375 
Q 14.5 44.390625 14.5 40.28125 
Q 14.5 37.15625 16.890625 35.375 
Q 19.28125 33.59375 26.515625 31.984375 
L 29.59375 31.296875 
Q 39.15625 29.25 43.1875 25.515625 
Q 47.21875 21.78125 47.21875 15.09375 
Q 47.21875 7.46875 41.1875 3.015625 
Q 35.15625 -1.421875 24.609375 -1.421875 
Q 20.21875 -1.421875 15.453125 -0.5625 
Q 10.6875 0.296875 5.421875 2 
L 5.421875 11.28125 
Q 10.40625 8.6875 15.234375 7.390625 
Q 20.0625 6.109375 24.8125 6.109375 
Q 31.15625 6.109375 34.5625 8.28125 
Q 37.984375 10.453125 37.984375 14.40625 
Q 37.984375 18.0625 35.515625 20.015625 
Q 33.0625 21.96875 24.703125 23.78125 
L 21.578125 24.515625 
Q 13.234375 26.265625 9.515625 29.90625 
Q 5.8125 33.546875 5.8125 39.890625 
Q 5.8125 47.609375 11.28125 51.796875 
Q 16.75 56 26.8125 56 
Q 31.78125 56 36.171875 55.265625 
Q 40.578125 54.546875 44.28125 53.078125 
z
" id="DejaVuSans-115"/>
      <path d="M 56.203125 29.59375 
L 56.203125 25.203125 
L 14.890625 25.203125 
Q 15.484375 15.921875 20.484375 11.0625 
Q 25.484375 6.203125 34.421875 6.203125 
Q 39.59375 6.203125 44.453125 7.46875 
Q 49.3125 8.734375 54.109375 11.28125 
L 54.109375 2.78125 
Q 49.265625 0.734375 44.1875 -0.34375 
Q 39.109375 -1.421875 33.890625 -1.421875 
Q 20.796875 -1.421875 13.15625 6.1875 
Q 5.515625 13.8125 5.515625 26.8125 
Q 5.515625 40.234375 12.765625 48.109375 
Q 20.015625 56 32.328125 56 
Q 43.359375 56 49.78125 48.890625 
Q 56.203125 41.796875 56.203125 29.59375 
z
M 47.21875 32.234375 
Q 47.125 39.59375 43.09375 43.984375 
Q 39.0625 48.390625 32.421875 48.390625 
Q 24.90625 48.390625 20.390625 44.140625 
Q 15.875 39.890625 15.1875 32.171875 
z
" id="DejaVuSans-101"/>
      <path id="DejaVuSans-32"/>
      <path d="M 41.109375 46.296875 
Q 39.59375 47.171875 37.8125 47.578125 
Q 36.03125 48 33.890625 48 
Q 26.265625 48 22.1875 43.046875 
Q 18.109375 38.09375 18.109375 28.8125 
L 18.109375 0 
L 9.078125 0 
L 9.078125 54.6875 
L 18.109375 54.6875 
L 18.109375 46.1875 
Q 20.953125 51.171875 25.484375 53.578125 
Q 30.03125 56 36.53125 56 
Q 37.453125 56 38.578125 55.875 
Q 39.703125 55.765625 41.0625 55.515625 
z
" id="DejaVuSans-114"/>
      <path d="M 52 44.1875 
Q 55.375 50.25 60.0625 53.125 
Q 64.75 56 71.09375 56 
Q 79.640625 56 84.28125 50.015625 
Q 88.921875 44.046875 88.921875 33.015625 
L 88.921875 0 
L 79.890625 0 
L 79.890625 32.71875 
Q 79.890625 40.578125 77.09375 44.375 
Q 74.3125 48.1875 68.609375 48.1875 
Q 61.625 48.1875 57.5625 43.546875 
Q 53.515625 38.921875 53.515625 30.90625 
L 53.515625 0 
L 44.484375 0 
L 44.484375 32.71875 
Q 44.484375 40.625 41.703125 44.40625 
Q 38.921875 48.1875 33.109375 48.1875 
Q 26.21875 48.1875 22.15625 43.53125 
Q 18.109375 38.875 18.109375 30.90625 
L 18.109375 0 
L 9.078125 0 
L 9.078125 54.6875 
L 18.109375 54.6875 
L 18.109375 46.1875 
Q 21.1875 51.21875 25.484375 53.609375 
Q 29.78125 56 35.6875 56 
Q 41.65625 56 45.828125 52.96875 
Q 50 49.953125 52 44.1875 
z
" id="DejaVuSans-109"/>
      <path d="M 18.3125 70.21875 
L 18.3125 54.6875 
L 36.8125 54.6875 
L 36.8125 47.703125 
L 18.3125 47.703125 
L 18.3125 18.015625 
Q 18.3125 11.328125 20.140625 9.421875 
Q 21.96875 7.515625 27.59375 7.515625 
L 36.8125 7.515625 
L 36.8125 0 
L 27.59375 0 
Q 17.1875 0 13.234375 3.875 
Q 9.28125 7.765625 9.28125 18.015625 
L 9.28125 47.703125 
L 2.6875 47.703125 
L 2.6875 54.6875 
L 9.28125 54.6875 
L 9.28125 70.21875 
z
" id="DejaVuSans-116"/>
     </defs>
     <g transform="translate(87.249375 382.27875)scale(0.16 -0.16)">
      <use xlink:href="#DejaVuSans-70"/>
      <use x="57.378906" xlink:href="#DejaVuSans-97"/>
      <use x="118.658203" xlink:href="#DejaVuSans-108"/>
      <use x="146.441406" xlink:href="#DejaVuSans-115"/>
      <use x="198.541016" xlink:href="#DejaVuSans-101"/>
      <use x="260.064453" xlink:href="#DejaVuSans-32"/>
      <use x="291.851562" xlink:href="#DejaVuSans-97"/>
      <use x="353.130859" xlink:href="#DejaVuSans-108"/>
      <use x="380.914062" xlink:href="#DejaVuSans-97"/>
      <use x="442.193359" xlink:href="#DejaVuSans-114"/>
      <use x="483.291016" xlink:href="#DejaVuSans-109"/>
      <use x="580.703125" xlink:href="#DejaVuSans-32"/>
      <use x="612.490234" xlink:href="#DejaVuSans-114"/>
      <use x="653.603516" xlink:href="#DejaVuSans-97"/>
      <use x="714.882812" xlink:href="#DejaVuSans-116"/>
      <use x="754.091797" xlink:href="#DejaVuSans-101"/>
     </g>
    </g>
   </g>
   <g id="matplotlib.axis_2">
    <g id="ytick_1">
     <g id="line2d_4">
      <defs>
       <path d="M 0 0 
L -3.5 0 
" id="m897576a3e7" style="stroke:#000000;stroke-width:0.8;"/>
      </defs>
      <g>
       <use style="stroke:#000000;stroke-width:0.8;" x="58.925" xlink:href="#m897576a3e7" y="345.571875"/>
      </g>
     </g>
     <g id="text_5">
      <!-- 0.0 -->
      <g transform="translate(29.660625 350.890781)scale(0.14 -0.14)">
       <use xlink:href="#DejaVuSans-48"/>
       <use x="63.623047" xlink:href="#DejaVuSans-46"/>
       <use x="95.410156" xlink:href="#DejaVuSans-48"/>
      </g>
     </g>
    </g>
    <g id="ytick_2">
     <g id="line2d_5">
      <g>
       <use style="stroke:#000000;stroke-width:0.8;" x="58.925" xlink:href="#m897576a3e7" y="256.455804"/>
      </g>
     </g>
     <g id="text_6">
      <!-- 0.5 -->
      <g transform="translate(29.660625 261.77471)scale(0.14 -0.14)">
       <use xlink:href="#DejaVuSans-48"/>
       <use x="63.623047" xlink:href="#DejaVuSans-46"/>
       <use x="95.410156" xlink:href="#DejaVuSans-53"/>
      </g>
     </g>
    </g>
    <g id="ytick_3">
     <g id="line2d_6">
      <g>
       <use style="stroke:#000000;stroke-width:0.8;" x="58.925" xlink:href="#m897576a3e7" y="167.339732"/>
      </g>
     </g>
     <g id="text_7">
      <!-- 1.0 -->
      <g transform="translate(29.660625 172.658638)scale(0.14 -0.14)">
       <use xlink:href="#DejaVuSans-49"/>
       <use x="63.623047" xlink:href="#DejaVuSans-46"/>
       <use x="95.410156" xlink:href="#DejaVuSans-48"/>
      </g>
     </g>
    </g>
    <g id="text_8">
     <!-- Hit rate -->
     <defs>
      <path d="M 9.8125 72.90625 
L 19.671875 72.90625 
L 19.671875 43.015625 
L 55.515625 43.015625 
L 55.515625 72.90625 
L 65.375 72.90625 
L 65.375 0 
L 55.515625 0 
L 55.515625 34.71875 
L 19.671875 34.71875 
L 19.671875 0 
L 9.8125 0 
z
" id="DejaVuSans-72"/>
      <path d="M 9.421875 54.6875 
L 18.40625 54.6875 
L 18.40625 0 
L 9.421875 0 
z
M 9.421875 75.984375 
L 18.40625 75.984375 
L 18.40625 64.59375 
L 9.421875 64.59375 
z
" id="DejaVuSans-105"/>
     </defs>
     <g transform="translate(22.333125 282.1675)rotate(-90)scale(0.16 -0.16)">
      <use xlink:href="#DejaVuSans-72"/>
      <use x="75.195312" xlink:href="#DejaVuSans-105"/>
      <use x="102.978516" xlink:href="#DejaVuSans-116"/>
      <use x="142.1875" xlink:href="#DejaVuSans-32"/>
      <use x="173.974609" xlink:href="#DejaVuSans-114"/>
      <use x="215.087891" xlink:href="#DejaVuSans-97"/>
      <use x="276.367188" xlink:href="#DejaVuSans-116"/>
      <use x="315.576172" xlink:href="#DejaVuSans-101"/>
     </g>
    </g>
   </g>
   <g id="line2d_7">
    <path clip-path="url(#pcccfd91503)" d="M 68.505738 234.861124 
L 74.892897 211.137392 
L 82.557487 204.446083 
L 92.138225 199.579676 
L 131.738609 186.805359 
" style="fill:none;stroke:#808080;stroke-linecap:square;stroke-opacity:0.7;stroke-width:1.5;"/>
    <defs>
     <path d="M 0 3 
C 0.795609 3 1.55874 2.683901 2.12132 2.12132 
C 2.683901 1.55874 3 0.795609 3 0 
C 3 -0.795609 2.683901 -1.55874 2.12132 -2.12132 
C 1.55874 -2.683901 0.795609 -3 0 -3 
C -0.795609 -3 -1.55874 -2.683901 -2.12132 -2.12132 
C -2.683901 -1.55874 -3 -0.795609 -3 0 
C -3 0.795609 -2.683901 1.55874 -2.12132 2.12132 
C -1.55874 2.683901 -0.795609 3 0 3 
z
" id="m8c2f7770eb" style="stroke:#808080;stroke-opacity:0.7;"/>
    </defs>
    <g clip-path="url(#pcccfd91503)">
     <use style="fill:#808080;fill-opacity:0.7;stroke:#808080;stroke-opacity:0.7;" x="68.505738" xlink:href="#m8c2f7770eb" y="234.861124"/>
     <use style="fill:#808080;fill-opacity:0.7;stroke:#808080;stroke-opacity:0.7;" x="74.892897" xlink:href="#m8c2f7770eb" y="211.137392"/>
     <use style="fill:#808080;fill-opacity:0.7;stroke:#808080;stroke-opacity:0.7;" x="82.557487" xlink:href="#m8c2f7770eb" y="204.446083"/>
     <use style="fill:#808080;fill-opacity:0.7;stroke:#808080;stroke-opacity:0.7;" x="92.138225" xlink:href="#m8c2f7770eb" y="199.579676"/>
     <use style="fill:#808080;fill-opacity:0.7;stroke:#808080;stroke-opacity:0.7;" x="131.738609" xlink:href="#m8c2f7770eb" y="186.805359"/>
    </g>
   </g>
   <g id="line2d_8">
    <path clip-path="url(#pcccfd91503)" d="M 87.667214 280.483686 
L 106.189974 241.552433 
L 127.906314 218.437002 
L 154.732381 194.713269 
L 189.223038 181.330651 
" style="fill:none;stroke:#808080;stroke-linecap:square;stroke-opacity:0.7;stroke-width:1.5;"/>
    <defs>
     <path d="M -3 3 
L 3 3 
L 3 -3 
L -3 -3 
z
" id="mc5f9f0fe1e" style="stroke:#808080;stroke-linejoin:miter;stroke-opacity:0.7;"/>
    </defs>
    <g clip-path="url(#pcccfd91503)">
     <use style="fill:#808080;fill-opacity:0.7;stroke:#808080;stroke-linejoin:miter;stroke-opacity:0.7;" x="87.667214" xlink:href="#mc5f9f0fe1e" y="280.483686"/>
     <use style="fill:#808080;fill-opacity:0.7;stroke:#808080;stroke-linejoin:miter;stroke-opacity:0.7;" x="106.189974" xlink:href="#mc5f9f0fe1e" y="241.552433"/>
     <use style="fill:#808080;fill-opacity:0.7;stroke:#808080;stroke-linejoin:miter;stroke-opacity:0.7;" x="127.906314" xlink:href="#mc5f9f0fe1e" y="218.437002"/>
     <use style="fill:#808080;fill-opacity:0.7;stroke:#808080;stroke-linejoin:miter;stroke-opacity:0.7;" x="154.732381" xlink:href="#mc5f9f0fe1e" y="194.713269"/>
     <use style="fill:#808080;fill-opacity:0.7;stroke:#808080;stroke-linejoin:miter;stroke-opacity:0.7;" x="189.223038" xlink:href="#mc5f9f0fe1e" y="181.330651"/>
    </g>
   </g>
   <g id="line2d_9">
    <path clip-path="url(#pcccfd91503)" d="M 67.228306 260.409759 
L 85.751067 223.911709 
L 107.467406 206.879286 
L 135.570904 191.063464 
L 166.229266 178.897448 
" style="fill:none;stroke:#808080;stroke-linecap:square;stroke-opacity:0.7;stroke-width:1.5;"/>
    <defs>
     <path d="M -0 3 
L 3 -3 
L -3 -3 
z
" id="m00b09b9f37" style="stroke:#808080;stroke-linejoin:miter;stroke-opacity:0.7;"/>
    </defs>
    <g clip-path="url(#pcccfd91503)">
     <use style="fill:#808080;fill-opacity:0.7;stroke:#808080;stroke-linejoin:miter;stroke-opacity:0.7;" x="67.228306" xlink:href="#m00b09b9f37" y="260.409759"/>
     <use style="fill:#808080;fill-opacity:0.7;stroke:#808080;stroke-linejoin:miter;stroke-opacity:0.7;" x="85.751067" xlink:href="#m00b09b9f37" y="223.911709"/>
     <use style="fill:#808080;fill-opacity:0.7;stroke:#808080;stroke-linejoin:miter;stroke-opacity:0.7;" x="107.467406" xlink:href="#m00b09b9f37" y="206.879286"/>
     <use style="fill:#808080;fill-opacity:0.7;stroke:#808080;stroke-linejoin:miter;stroke-opacity:0.7;" x="135.570904" xlink:href="#m00b09b9f37" y="191.063464"/>
     <use style="fill:#808080;fill-opacity:0.7;stroke:#808080;stroke-linejoin:miter;stroke-opacity:0.7;" x="166.229266" xlink:href="#m00b09b9f37" y="178.897448"/>
    </g>
   </g>
   <g id="line2d_10">
    <path clip-path="url(#pcccfd91503)" d="M 65.608705 261.736756 
L 80.312857 235.331994 
L 100.363973 216.188542 
L 136.455982 196.38497 
L 179.231696 180.542113 
" style="fill:none;stroke:#000000;stroke-linecap:square;stroke-opacity:0.7;stroke-width:1.5;"/>
    <defs>
     <path d="M 0 3 
C 0.795609 3 1.55874 2.683901 2.12132 2.12132 
C 2.683901 1.55874 3 0.795609 3 0 
C 3 -0.795609 2.683901 -1.55874 2.12132 -2.12132 
C 1.55874 -2.683901 0.795609 -3 0 -3 
C -0.795609 -3 -1.55874 -2.683901 -2.12132 -2.12132 
C -2.683901 -1.55874 -3 -0.795609 -3 0 
C -3 0.795609 -2.683901 1.55874 -2.12132 2.12132 
C -1.55874 2.683901 -0.795609 3 0 3 
z
" id="m2f71f9575c" style="stroke:#000000;stroke-opacity:0.7;"/>
    </defs>
    <g clip-path="url(#pcccfd91503)">
     <use style="fill-opacity:0.7;stroke:#000000;stroke-opacity:0.7;" x="65.608705" xlink:href="#m2f71f9575c" y="261.736756"/>
     <use style="fill-opacity:0.7;stroke:#000000;stroke-opacity:0.7;" x="80.312857" xlink:href="#m2f71f9575c" y="235.331994"/>
     <use style="fill-opacity:0.7;stroke:#000000;stroke-opacity:0.7;" x="100.363973" xlink:href="#m2f71f9575c" y="216.188542"/>
     <use style="fill-opacity:0.7;stroke:#000000;stroke-opacity:0.7;" x="136.455982" xlink:href="#m2f71f9575c" y="196.38497"/>
     <use style="fill-opacity:0.7;stroke:#000000;stroke-opacity:0.7;" x="179.231696" xlink:href="#m2f71f9575c" y="180.542113"/>
    </g>
   </g>
   <g id="line2d_11">
    <path clip-path="url(#pcccfd91503)" d="M 62.935223 319.167113 
L 78.976116 275.599256 
L 117.073237 238.632589 
L 152.496875 206.946875 
L 213.986964 173.940923 
" style="fill:none;stroke:#000000;stroke-linecap:square;stroke-opacity:0.7;stroke-width:1.5;"/>
    <defs>
     <path d="M -3 3 
L 3 3 
L 3 -3 
L -3 -3 
z
" id="maf7a9ffcb4" style="stroke:#000000;stroke-linejoin:miter;stroke-opacity:0.7;"/>
    </defs>
    <g clip-path="url(#pcccfd91503)">
     <use style="fill-opacity:0.7;stroke:#000000;stroke-linejoin:miter;stroke-opacity:0.7;" x="62.935223" xlink:href="#maf7a9ffcb4" y="319.167113"/>
     <use style="fill-opacity:0.7;stroke:#000000;stroke-linejoin:miter;stroke-opacity:0.7;" x="78.976116" xlink:href="#maf7a9ffcb4" y="275.599256"/>
     <use style="fill-opacity:0.7;stroke:#000000;stroke-linejoin:miter;stroke-opacity:0.7;" x="117.073237" xlink:href="#maf7a9ffcb4" y="238.632589"/>
     <use style="fill-opacity:0.7;stroke:#000000;stroke-linejoin:miter;stroke-opacity:0.7;" x="152.496875" xlink:href="#maf7a9ffcb4" y="206.946875"/>
     <use style="fill-opacity:0.7;stroke:#000000;stroke-linejoin:miter;stroke-opacity:0.7;" x="213.986964" xlink:href="#maf7a9ffcb4" y="173.940923"/>
    </g>
   </g>
   <g id="line2d_12">
    <path clip-path="url(#pcccfd91503)" d="M 58.925 345.571875 
L 246.06875 167.339732 
" style="fill:none;stroke:#000000;stroke-dasharray:5.55,2.4;stroke-dashoffset:0;stroke-width:1.5;"/>
   </g>
   <g id="patch_3">
    <path d="M 58.925 345.571875 
L 58.925 158.428125 
" style="fill:none;stroke:#000000;stroke-linecap:square;stroke-linejoin:miter;stroke-width:0.8;"/>
   </g>
   <g id="patch_4">
    <path d="M 246.06875 345.571875 
L 246.06875 158.428125 
" style="fill:none;stroke:#000000;stroke-linecap:square;stroke-linejoin:miter;stroke-width:0.8;"/>
   </g>
   <g id="patch_5">
    <path d="M 58.925 345.571875 
L 246.06875 345.571875 
" style="fill:none;stroke:#000000;stroke-linecap:square;stroke-linejoin:miter;stroke-width:0.8;"/>
   </g>
   <g id="patch_6">
    <path d="M 58.925 158.428125 
L 246.06875 158.428125 
" style="fill:none;stroke:#000000;stroke-linecap:square;stroke-linejoin:miter;stroke-width:0.8;"/>
   </g>
   <g id="legend_1">
    <g id="patch_7">
     <path d="M 30.3425 446.5425 
L 555.813125 446.5425 
Q 558.213125 446.5425 558.213125 444.1425 
L 558.213125 410.115 
Q 558.213125 407.715 555.813125 407.715 
L 30.3425 407.715 
Q 27.9425 407.715 27.9425 410.115 
L 27.9425 444.1425 
Q 27.9425 446.5425 30.3425 446.5425 
z
" style="fill:#ffffff;opacity:0.8;stroke:#cccccc;stroke-linejoin:miter;"/>
    </g>
    <g id="line2d_13">
     <path d="M 32.7425 417.433125 
L 56.7425 417.433125 
" style="fill:none;stroke:#808080;stroke-linecap:square;stroke-opacity:0.7;stroke-width:1.5;"/>
    </g>
    <g id="line2d_14">
     <g>
      <use style="fill:#808080;fill-opacity:0.7;stroke:#808080;stroke-opacity:0.7;" x="44.7425" xlink:href="#m8c2f7770eb" y="417.433125"/>
     </g>
    </g>
    <g id="text_9">
     <!-- 1: Wais 2006, C -->
     <defs>
      <path d="M 11.71875 12.40625 
L 22.015625 12.40625 
L 22.015625 0 
L 11.71875 0 
z
M 11.71875 51.703125 
L 22.015625 51.703125 
L 22.015625 39.3125 
L 11.71875 39.3125 
z
" id="DejaVuSans-58"/>
      <path d="M 3.328125 72.90625 
L 13.28125 72.90625 
L 28.609375 11.28125 
L 43.890625 72.90625 
L 54.984375 72.90625 
L 70.3125 11.28125 
L 85.59375 72.90625 
L 95.609375 72.90625 
L 77.296875 0 
L 64.890625 0 
L 49.515625 63.28125 
L 33.984375 0 
L 21.578125 0 
z
" id="DejaVuSans-87"/>
      <path d="M 19.1875 8.296875 
L 53.609375 8.296875 
L 53.609375 0 
L 7.328125 0 
L 7.328125 8.296875 
Q 12.9375 14.109375 22.625 23.890625 
Q 32.328125 33.6875 34.8125 36.53125 
Q 39.546875 41.84375 41.421875 45.53125 
Q 43.3125 49.21875 43.3125 52.78125 
Q 43.3125 58.59375 39.234375 62.25 
Q 35.15625 65.921875 28.609375 65.921875 
Q 23.96875 65.921875 18.8125 64.3125 
Q 13.671875 62.703125 7.8125 59.421875 
L 7.8125 69.390625 
Q 13.765625 71.78125 18.9375 73 
Q 24.125 74.21875 28.421875 74.21875 
Q 39.75 74.21875 46.484375 68.546875 
Q 53.21875 62.890625 53.21875 53.421875 
Q 53.21875 48.921875 51.53125 44.890625 
Q 49.859375 40.875 45.40625 35.40625 
Q 44.1875 33.984375 37.640625 27.21875 
Q 31.109375 20.453125 19.1875 8.296875 
z
" id="DejaVuSans-50"/>
      <path d="M 33.015625 40.375 
Q 26.375 40.375 22.484375 35.828125 
Q 18.609375 31.296875 18.609375 23.390625 
Q 18.609375 15.53125 22.484375 10.953125 
Q 26.375 6.390625 33.015625 6.390625 
Q 39.65625 6.390625 43.53125 10.953125 
Q 47.40625 15.53125 47.40625 23.390625 
Q 47.40625 31.296875 43.53125 35.828125 
Q 39.65625 40.375 33.015625 40.375 
z
M 52.59375 71.296875 
L 52.59375 62.3125 
Q 48.875 64.0625 45.09375 64.984375 
Q 41.3125 65.921875 37.59375 65.921875 
Q 27.828125 65.921875 22.671875 59.328125 
Q 17.53125 52.734375 16.796875 39.40625 
Q 19.671875 43.65625 24.015625 45.921875 
Q 28.375 48.1875 33.59375 48.1875 
Q 44.578125 48.1875 50.953125 41.515625 
Q 57.328125 34.859375 57.328125 23.390625 
Q 57.328125 12.15625 50.6875 5.359375 
Q 44.046875 -1.421875 33.015625 -1.421875 
Q 20.359375 -1.421875 13.671875 8.265625 
Q 6.984375 17.96875 6.984375 36.375 
Q 6.984375 53.65625 15.1875 63.9375 
Q 23.390625 74.21875 37.203125 74.21875 
Q 40.921875 74.21875 44.703125 73.484375 
Q 48.484375 72.75 52.59375 71.296875 
z
" id="DejaVuSans-54"/>
      <path d="M 11.71875 12.40625 
L 22.015625 12.40625 
L 22.015625 4 
L 14.015625 -11.625 
L 7.71875 -11.625 
L 11.71875 4 
z
" id="DejaVuSans-44"/>
      <path d="M 64.40625 67.28125 
L 64.40625 56.890625 
Q 59.421875 61.53125 53.78125 63.8125 
Q 48.140625 66.109375 41.796875 66.109375 
Q 29.296875 66.109375 22.65625 58.46875 
Q 16.015625 50.828125 16.015625 36.375 
Q 16.015625 21.96875 22.65625 14.328125 
Q 29.296875 6.6875 41.796875 6.6875 
Q 48.140625 6.6875 53.78125 8.984375 
Q 59.421875 11.28125 64.40625 15.921875 
L 64.40625 5.609375 
Q 59.234375 2.09375 53.4375 0.328125 
Q 47.65625 -1.421875 41.21875 -1.421875 
Q 24.65625 -1.421875 15.125 8.703125 
Q 5.609375 18.84375 5.609375 36.375 
Q 5.609375 53.953125 15.125 64.078125 
Q 24.65625 74.21875 41.21875 74.21875 
Q 47.75 74.21875 53.53125 72.484375 
Q 59.328125 70.75 64.40625 67.28125 
z
" id="DejaVuSans-67"/>
     </defs>
     <g transform="translate(66.3425 421.633125)scale(0.12 -0.12)">
      <use xlink:href="#DejaVuSans-49"/>
      <use x="63.623047" xlink:href="#DejaVuSans-58"/>
      <use x="97.314453" xlink:href="#DejaVuSans-32"/>
      <use x="129.101562" xlink:href="#DejaVuSans-87"/>
      <use x="227.884766" xlink:href="#DejaVuSans-97"/>
      <use x="289.164062" xlink:href="#DejaVuSans-105"/>
      <use x="316.947266" xlink:href="#DejaVuSans-115"/>
      <use x="369.046875" xlink:href="#DejaVuSans-32"/>
      <use x="400.833984" xlink:href="#DejaVuSans-50"/>
      <use x="464.457031" xlink:href="#DejaVuSans-48"/>
      <use x="528.080078" xlink:href="#DejaVuSans-48"/>
      <use x="591.703125" xlink:href="#DejaVuSans-54"/>
      <use x="655.326172" xlink:href="#DejaVuSans-44"/>
      <use x="687.113281" xlink:href="#DejaVuSans-32"/>
      <use x="718.900391" xlink:href="#DejaVuSans-67"/>
     </g>
    </g>
    <g id="line2d_15">
     <path d="M 32.7425 435.046875 
L 56.7425 435.046875 
" style="fill:none;stroke:#808080;stroke-linecap:square;stroke-opacity:0.7;stroke-width:1.5;"/>
    </g>
    <g id="line2d_16">
     <g>
      <use style="fill:#808080;fill-opacity:0.7;stroke:#808080;stroke-linejoin:miter;stroke-opacity:0.7;" x="44.7425" xlink:href="#mc5f9f0fe1e" y="435.046875"/>
     </g>
    </g>
    <g id="text_10">
     <!-- 2: Wais 2006, H -->
     <g transform="translate(66.3425 439.246875)scale(0.12 -0.12)">
      <use xlink:href="#DejaVuSans-50"/>
      <use x="63.623047" xlink:href="#DejaVuSans-58"/>
      <use x="97.314453" xlink:href="#DejaVuSans-32"/>
      <use x="129.101562" xlink:href="#DejaVuSans-87"/>
      <use x="227.884766" xlink:href="#DejaVuSans-97"/>
      <use x="289.164062" xlink:href="#DejaVuSans-105"/>
      <use x="316.947266" xlink:href="#DejaVuSans-115"/>
      <use x="369.046875" xlink:href="#DejaVuSans-32"/>
      <use x="400.833984" xlink:href="#DejaVuSans-50"/>
      <use x="464.457031" xlink:href="#DejaVuSans-48"/>
      <use x="528.080078" xlink:href="#DejaVuSans-48"/>
      <use x="591.703125" xlink:href="#DejaVuSans-54"/>
      <use x="655.326172" xlink:href="#DejaVuSans-44"/>
      <use x="687.113281" xlink:href="#DejaVuSans-32"/>
      <use x="718.900391" xlink:href="#DejaVuSans-72"/>
     </g>
    </g>
    <g id="line2d_17">
     <path d="M 185.631875 417.433125 
L 209.631875 417.433125 
" style="fill:none;stroke:#808080;stroke-linecap:square;stroke-opacity:0.7;stroke-width:1.5;"/>
    </g>
    <g id="line2d_18">
     <g>
      <use style="fill:#808080;fill-opacity:0.7;stroke:#808080;stroke-linejoin:miter;stroke-opacity:0.7;" x="197.631875" xlink:href="#m00b09b9f37" y="417.433125"/>
     </g>
    </g>
    <g id="text_11">
     <!-- 3: Wais 2006, H-matched -->
     <defs>
      <path d="M 40.578125 39.3125 
Q 47.65625 37.796875 51.625 33 
Q 55.609375 28.21875 55.609375 21.1875 
Q 55.609375 10.40625 48.1875 4.484375 
Q 40.765625 -1.421875 27.09375 -1.421875 
Q 22.515625 -1.421875 17.65625 -0.515625 
Q 12.796875 0.390625 7.625 2.203125 
L 7.625 11.71875 
Q 11.71875 9.328125 16.59375 8.109375 
Q 21.484375 6.890625 26.8125 6.890625 
Q 36.078125 6.890625 40.9375 10.546875 
Q 45.796875 14.203125 45.796875 21.1875 
Q 45.796875 27.640625 41.28125 31.265625 
Q 36.765625 34.90625 28.71875 34.90625 
L 20.21875 34.90625 
L 20.21875 43.015625 
L 29.109375 43.015625 
Q 36.375 43.015625 40.234375 45.921875 
Q 44.09375 48.828125 44.09375 54.296875 
Q 44.09375 59.90625 40.109375 62.90625 
Q 36.140625 65.921875 28.71875 65.921875 
Q 24.65625 65.921875 20.015625 65.03125 
Q 15.375 64.15625 9.8125 62.3125 
L 9.8125 71.09375 
Q 15.4375 72.65625 20.34375 73.4375 
Q 25.25 74.21875 29.59375 74.21875 
Q 40.828125 74.21875 47.359375 69.109375 
Q 53.90625 64.015625 53.90625 55.328125 
Q 53.90625 49.265625 50.4375 45.09375 
Q 46.96875 40.921875 40.578125 39.3125 
z
" id="DejaVuSans-51"/>
      <path d="M 4.890625 31.390625 
L 31.203125 31.390625 
L 31.203125 23.390625 
L 4.890625 23.390625 
z
" id="DejaVuSans-45"/>
      <path d="M 48.78125 52.59375 
L 48.78125 44.1875 
Q 44.96875 46.296875 41.140625 47.34375 
Q 37.3125 48.390625 33.40625 48.390625 
Q 24.65625 48.390625 19.8125 42.84375 
Q 14.984375 37.3125 14.984375 27.296875 
Q 14.984375 17.28125 19.8125 11.734375 
Q 24.65625 6.203125 33.40625 6.203125 
Q 37.3125 6.203125 41.140625 7.25 
Q 44.96875 8.296875 48.78125 10.40625 
L 48.78125 2.09375 
Q 45.015625 0.34375 40.984375 -0.53125 
Q 36.96875 -1.421875 32.421875 -1.421875 
Q 20.0625 -1.421875 12.78125 6.34375 
Q 5.515625 14.109375 5.515625 27.296875 
Q 5.515625 40.671875 12.859375 48.328125 
Q 20.21875 56 33.015625 56 
Q 37.15625 56 41.109375 55.140625 
Q 45.0625 54.296875 48.78125 52.59375 
z
" id="DejaVuSans-99"/>
      <path d="M 54.890625 33.015625 
L 54.890625 0 
L 45.90625 0 
L 45.90625 32.71875 
Q 45.90625 40.484375 42.875 44.328125 
Q 39.84375 48.1875 33.796875 48.1875 
Q 26.515625 48.1875 22.3125 43.546875 
Q 18.109375 38.921875 18.109375 30.90625 
L 18.109375 0 
L 9.078125 0 
L 9.078125 75.984375 
L 18.109375 75.984375 
L 18.109375 46.1875 
Q 21.34375 51.125 25.703125 53.5625 
Q 30.078125 56 35.796875 56 
Q 45.21875 56 50.046875 50.171875 
Q 54.890625 44.34375 54.890625 33.015625 
z
" id="DejaVuSans-104"/>
      <path d="M 45.40625 46.390625 
L 45.40625 75.984375 
L 54.390625 75.984375 
L 54.390625 0 
L 45.40625 0 
L 45.40625 8.203125 
Q 42.578125 3.328125 38.25 0.953125 
Q 33.9375 -1.421875 27.875 -1.421875 
Q 17.96875 -1.421875 11.734375 6.484375 
Q 5.515625 14.40625 5.515625 27.296875 
Q 5.515625 40.1875 11.734375 48.09375 
Q 17.96875 56 27.875 56 
Q 33.9375 56 38.25 53.625 
Q 42.578125 51.265625 45.40625 46.390625 
z
M 14.796875 27.296875 
Q 14.796875 17.390625 18.875 11.75 
Q 22.953125 6.109375 30.078125 6.109375 
Q 37.203125 6.109375 41.296875 11.75 
Q 45.40625 17.390625 45.40625 27.296875 
Q 45.40625 37.203125 41.296875 42.84375 
Q 37.203125 48.484375 30.078125 48.484375 
Q 22.953125 48.484375 18.875 42.84375 
Q 14.796875 37.203125 14.796875 27.296875 
z
" id="DejaVuSans-100"/>
     </defs>
     <g transform="translate(219.231875 421.633125)scale(0.12 -0.12)">
      <use xlink:href="#DejaVuSans-51"/>
      <use x="63.623047" xlink:href="#DejaVuSans-58"/>
      <use x="97.314453" xlink:href="#DejaVuSans-32"/>
      <use x="129.101562" xlink:href="#DejaVuSans-87"/>
      <use x="227.884766" xlink:href="#DejaVuSans-97"/>
      <use x="289.164062" xlink:href="#DejaVuSans-105"/>
      <use x="316.947266" xlink:href="#DejaVuSans-115"/>
      <use x="369.046875" xlink:href="#DejaVuSans-32"/>
      <use x="400.833984" xlink:href="#DejaVuSans-50"/>
      <use x="464.457031" xlink:href="#DejaVuSans-48"/>
      <use x="528.080078" xlink:href="#DejaVuSans-48"/>
      <use x="591.703125" xlink:href="#DejaVuSans-54"/>
      <use x="655.326172" xlink:href="#DejaVuSans-44"/>
      <use x="687.113281" xlink:href="#DejaVuSans-32"/>
      <use x="718.900391" xlink:href="#DejaVuSans-72"/>
      <use x="794.095703" xlink:href="#DejaVuSans-45"/>
      <use x="830.179688" xlink:href="#DejaVuSans-109"/>
      <use x="927.591797" xlink:href="#DejaVuSans-97"/>
      <use x="988.871094" xlink:href="#DejaVuSans-116"/>
      <use x="1028.080078" xlink:href="#DejaVuSans-99"/>
      <use x="1083.060547" xlink:href="#DejaVuSans-104"/>
      <use x="1146.439453" xlink:href="#DejaVuSans-101"/>
      <use x="1207.962891" xlink:href="#DejaVuSans-100"/>
     </g>
    </g>
    <g id="line2d_19">
     <path d="M 185.631875 435.046875 
L 209.631875 435.046875 
" style="fill:none;stroke:#000000;stroke-linecap:square;stroke-opacity:0.7;stroke-width:1.5;"/>
    </g>
    <g id="line2d_20">
     <g>
      <use style="fill-opacity:0.7;stroke:#000000;stroke-opacity:0.7;" x="197.631875" xlink:href="#m2f71f9575c" y="435.046875"/>
     </g>
    </g>
    <g id="text_12">
     <!-- 4: Yonelinas 2002, C -->
     <defs>
      <path d="M 37.796875 64.3125 
L 12.890625 25.390625 
L 37.796875 25.390625 
z
M 35.203125 72.90625 
L 47.609375 72.90625 
L 47.609375 25.390625 
L 58.015625 25.390625 
L 58.015625 17.1875 
L 47.609375 17.1875 
L 47.609375 0 
L 37.796875 0 
L 37.796875 17.1875 
L 4.890625 17.1875 
L 4.890625 26.703125 
z
" id="DejaVuSans-52"/>
      <path d="M -0.203125 72.90625 
L 10.40625 72.90625 
L 30.609375 42.921875 
L 50.6875 72.90625 
L 61.28125 72.90625 
L 35.5 34.71875 
L 35.5 0 
L 25.59375 0 
L 25.59375 34.71875 
z
" id="DejaVuSans-89"/>
      <path d="M 30.609375 48.390625 
Q 23.390625 48.390625 19.1875 42.75 
Q 14.984375 37.109375 14.984375 27.296875 
Q 14.984375 17.484375 19.15625 11.84375 
Q 23.34375 6.203125 30.609375 6.203125 
Q 37.796875 6.203125 41.984375 11.859375 
Q 46.1875 17.53125 46.1875 27.296875 
Q 46.1875 37.015625 41.984375 42.703125 
Q 37.796875 48.390625 30.609375 48.390625 
z
M 30.609375 56 
Q 42.328125 56 49.015625 48.375 
Q 55.71875 40.765625 55.71875 27.296875 
Q 55.71875 13.875 49.015625 6.21875 
Q 42.328125 -1.421875 30.609375 -1.421875 
Q 18.84375 -1.421875 12.171875 6.21875 
Q 5.515625 13.875 5.515625 27.296875 
Q 5.515625 40.765625 12.171875 48.375 
Q 18.84375 56 30.609375 56 
z
" id="DejaVuSans-111"/>
      <path d="M 54.890625 33.015625 
L 54.890625 0 
L 45.90625 0 
L 45.90625 32.71875 
Q 45.90625 40.484375 42.875 44.328125 
Q 39.84375 48.1875 33.796875 48.1875 
Q 26.515625 48.1875 22.3125 43.546875 
Q 18.109375 38.921875 18.109375 30.90625 
L 18.109375 0 
L 9.078125 0 
L 9.078125 54.6875 
L 18.109375 54.6875 
L 18.109375 46.1875 
Q 21.34375 51.125 25.703125 53.5625 
Q 30.078125 56 35.796875 56 
Q 45.21875 56 50.046875 50.171875 
Q 54.890625 44.34375 54.890625 33.015625 
z
" id="DejaVuSans-110"/>
     </defs>
     <g transform="translate(219.231875 439.246875)scale(0.12 -0.12)">
      <use xlink:href="#DejaVuSans-52"/>
      <use x="63.623047" xlink:href="#DejaVuSans-58"/>
      <use x="97.314453" xlink:href="#DejaVuSans-32"/>
      <use x="129.101562" xlink:href="#DejaVuSans-89"/>
      <use x="189.982422" xlink:href="#DejaVuSans-111"/>
      <use x="251.164062" xlink:href="#DejaVuSans-110"/>
      <use x="314.542969" xlink:href="#DejaVuSans-101"/>
      <use x="376.066406" xlink:href="#DejaVuSans-108"/>
      <use x="403.849609" xlink:href="#DejaVuSans-105"/>
      <use x="431.632812" xlink:href="#DejaVuSans-110"/>
      <use x="495.011719" xlink:href="#DejaVuSans-97"/>
      <use x="556.291016" xlink:href="#DejaVuSans-115"/>
      <use x="608.390625" xlink:href="#DejaVuSans-32"/>
      <use x="640.177734" xlink:href="#DejaVuSans-50"/>
      <use x="703.800781" xlink:href="#DejaVuSans-48"/>
      <use x="767.423828" xlink:href="#DejaVuSans-48"/>
      <use x="831.046875" xlink:href="#DejaVuSans-50"/>
      <use x="894.669922" xlink:href="#DejaVuSans-44"/>
      <use x="926.457031" xlink:href="#DejaVuSans-32"/>
      <use x="958.244141" xlink:href="#DejaVuSans-67"/>
     </g>
    </g>
    <g id="line2d_21">
     <path d="M 395.8025 417.433125 
L 419.8025 417.433125 
" style="fill:none;stroke:#000000;stroke-linecap:square;stroke-opacity:0.7;stroke-width:1.5;"/>
    </g>
    <g id="line2d_22">
     <g>
      <use style="fill-opacity:0.7;stroke:#000000;stroke-linejoin:miter;stroke-opacity:0.7;" x="407.8025" xlink:href="#maf7a9ffcb4" y="417.433125"/>
     </g>
    </g>
    <g id="text_13">
     <!-- 5: Yonelinas 2002, H -->
     <g transform="translate(429.4025 421.633125)scale(0.12 -0.12)">
      <use xlink:href="#DejaVuSans-53"/>
      <use x="63.623047" xlink:href="#DejaVuSans-58"/>
      <use x="97.314453" xlink:href="#DejaVuSans-32"/>
      <use x="129.101562" xlink:href="#DejaVuSans-89"/>
      <use x="189.982422" xlink:href="#DejaVuSans-111"/>
      <use x="251.164062" xlink:href="#DejaVuSans-110"/>
      <use x="314.542969" xlink:href="#DejaVuSans-101"/>
      <use x="376.066406" xlink:href="#DejaVuSans-108"/>
      <use x="403.849609" xlink:href="#DejaVuSans-105"/>
      <use x="431.632812" xlink:href="#DejaVuSans-110"/>
      <use x="495.011719" xlink:href="#DejaVuSans-97"/>
      <use x="556.291016" xlink:href="#DejaVuSans-115"/>
      <use x="608.390625" xlink:href="#DejaVuSans-32"/>
      <use x="640.177734" xlink:href="#DejaVuSans-50"/>
      <use x="703.800781" xlink:href="#DejaVuSans-48"/>
      <use x="767.423828" xlink:href="#DejaVuSans-48"/>
      <use x="831.046875" xlink:href="#DejaVuSans-50"/>
      <use x="894.669922" xlink:href="#DejaVuSans-44"/>
      <use x="926.457031" xlink:href="#DejaVuSans-32"/>
      <use x="958.244141" xlink:href="#DejaVuSans-72"/>
     </g>
    </g>
   </g>
  </g>
  <g id="axes_2">
   <g id="patch_8">
    <path d="M 306.05625 345.571875 
L 493.2 345.571875 
L 493.2 158.428125 
L 306.05625 158.428125 
z
" style="fill:#ffffff;"/>
   </g>
   <g id="patch_9">
    <path clip-path="url(#pc8ea40fb2c)" d="M 314.967857 345.571875 
L 323.879464 345.571875 
L 323.879464 281.519311 
L 314.967857 281.519311 
z
" style="fill:#808080;opacity:0.7;"/>
   </g>
   <g id="patch_10">
    <path clip-path="url(#pc8ea40fb2c)" d="M 341.702679 345.571875 
L 350.614286 345.571875 
L 350.614286 345.571875 
L 341.702679 345.571875 
z
" style="fill:#808080;opacity:0.7;"/>
   </g>
   <g id="patch_11">
    <path clip-path="url(#pc8ea40fb2c)" d="M 368.4375 345.571875 
L 377.349107 345.571875 
L 377.349107 284.304205 
L 368.4375 284.304205 
z
" style="fill:#808080;opacity:0.7;"/>
   </g>
   <g id="patch_12">
    <path clip-path="url(#pc8ea40fb2c)" d="M 421.907143 345.571875 
L 430.81875 345.571875 
L 430.81875 167.339732 
L 421.907143 167.339732 
z
" style="fill:#808080;opacity:0.7;"/>
   </g>
   <g id="patch_13">
    <path clip-path="url(#pc8ea40fb2c)" d="M 448.641964 345.571875 
L 457.553571 345.571875 
L 457.553571 254.84113 
L 448.641964 254.84113 
z
" style="fill:#808080;opacity:0.7;"/>
   </g>
   <g id="patch_14">
    <path clip-path="url(#pc8ea40fb2c)" d="M 475.376786 345.571875 
L 484.288393 345.571875 
L 484.288393 214.269857 
L 475.376786 214.269857 
z
" style="fill:#808080;opacity:0.7;"/>
   </g>
   <g id="matplotlib.axis_3">
    <g id="xtick_4">
     <g id="line2d_23">
      <g>
       <use style="stroke:#000000;stroke-width:0.8;" x="319.423661" xlink:href="#m08041b481f" y="345.571875"/>
      </g>
     </g>
     <g id="text_14">
      <!-- 1 -->
      <g transform="translate(314.969911 363.209687)scale(0.14 -0.14)">
       <use xlink:href="#DejaVuSans-49"/>
      </g>
     </g>
    </g>
    <g id="xtick_5">
     <g id="line2d_24">
      <g>
       <use style="stroke:#000000;stroke-width:0.8;" x="346.158482" xlink:href="#m08041b481f" y="345.571875"/>
      </g>
     </g>
     <g id="text_15">
      <!-- 2 -->
      <g transform="translate(341.704732 363.209687)scale(0.14 -0.14)">
       <use xlink:href="#DejaVuSans-50"/>
      </g>
     </g>
    </g>
    <g id="xtick_6">
     <g id="line2d_25">
      <g>
       <use style="stroke:#000000;stroke-width:0.8;" x="372.893304" xlink:href="#m08041b481f" y="345.571875"/>
      </g>
     </g>
     <g id="text_16">
      <!-- 3 -->
      <g transform="translate(368.439554 363.209687)scale(0.14 -0.14)">
       <use xlink:href="#DejaVuSans-51"/>
      </g>
     </g>
    </g>
    <g id="xtick_7">
     <g id="line2d_26">
      <g>
       <use style="stroke:#000000;stroke-width:0.8;" x="426.362946" xlink:href="#m08041b481f" y="345.571875"/>
      </g>
     </g>
     <g id="text_17">
      <!-- 1 -->
      <g transform="translate(421.909196 363.209687)scale(0.14 -0.14)">
       <use xlink:href="#DejaVuSans-49"/>
      </g>
     </g>
    </g>
    <g id="xtick_8">
     <g id="line2d_27">
      <g>
       <use style="stroke:#000000;stroke-width:0.8;" x="453.097768" xlink:href="#m08041b481f" y="345.571875"/>
      </g>
     </g>
     <g id="text_18">
      <!-- 2 -->
      <g transform="translate(448.644018 363.209687)scale(0.14 -0.14)">
       <use xlink:href="#DejaVuSans-50"/>
      </g>
     </g>
    </g>
    <g id="xtick_9">
     <g id="line2d_28">
      <g>
       <use style="stroke:#000000;stroke-width:0.8;" x="479.832589" xlink:href="#m08041b481f" y="345.571875"/>
      </g>
     </g>
     <g id="text_19">
      <!-- 3 -->
      <g transform="translate(475.378839 363.209687)scale(0.14 -0.14)">
       <use xlink:href="#DejaVuSans-51"/>
      </g>
     </g>
    </g>
   </g>
   <g id="matplotlib.axis_4">
    <g id="ytick_4">
     <g id="line2d_29">
      <g>
       <use style="stroke:#000000;stroke-width:0.8;" x="306.05625" xlink:href="#m897576a3e7" y="345.571875"/>
      </g>
     </g>
     <g id="text_20">
      <!-- 0.00 -->
      <g transform="translate(267.884375 350.890781)scale(0.14 -0.14)">
       <use xlink:href="#DejaVuSans-48"/>
       <use x="63.623047" xlink:href="#DejaVuSans-46"/>
       <use x="95.410156" xlink:href="#DejaVuSans-48"/>
       <use x="159.033203" xlink:href="#DejaVuSans-48"/>
      </g>
     </g>
    </g>
    <g id="ytick_5">
     <g id="line2d_30">
      <g>
       <use style="stroke:#000000;stroke-width:0.8;" x="306.05625" xlink:href="#m897576a3e7" y="250.885476"/>
      </g>
     </g>
     <g id="text_21">
      <!-- 0.34 -->
      <g transform="translate(267.884375 256.204382)scale(0.14 -0.14)">
       <use xlink:href="#DejaVuSans-48"/>
       <use x="63.623047" xlink:href="#DejaVuSans-46"/>
       <use x="95.410156" xlink:href="#DejaVuSans-51"/>
       <use x="159.033203" xlink:href="#DejaVuSans-52"/>
      </g>
     </g>
    </g>
    <g id="ytick_6">
     <g id="line2d_31">
      <g>
       <use style="stroke:#000000;stroke-width:0.8;" x="306.05625" xlink:href="#m897576a3e7" y="158.983971"/>
      </g>
     </g>
     <g id="text_22">
      <!-- 0.67 -->
      <defs>
       <path d="M 8.203125 72.90625 
L 55.078125 72.90625 
L 55.078125 68.703125 
L 28.609375 0 
L 18.3125 0 
L 43.21875 64.59375 
L 8.203125 64.59375 
z
" id="DejaVuSans-55"/>
      </defs>
      <g transform="translate(267.884375 164.302877)scale(0.14 -0.14)">
       <use xlink:href="#DejaVuSans-48"/>
       <use x="63.623047" xlink:href="#DejaVuSans-46"/>
       <use x="95.410156" xlink:href="#DejaVuSans-54"/>
       <use x="159.033203" xlink:href="#DejaVuSans-55"/>
      </g>
     </g>
    </g>
   </g>
   <g id="patch_15">
    <path d="M 306.05625 345.571875 
L 306.05625 158.428125 
" style="fill:none;stroke:#000000;stroke-linecap:square;stroke-linejoin:miter;stroke-width:0.8;"/>
   </g>
   <g id="patch_16">
    <path d="M 493.2 345.571875 
L 493.2 158.428125 
" style="fill:none;stroke:#000000;stroke-linecap:square;stroke-linejoin:miter;stroke-width:0.8;"/>
   </g>
   <g id="patch_17">
    <path d="M 306.05625 345.571875 
L 493.2 345.571875 
" style="fill:none;stroke:#000000;stroke-linecap:square;stroke-linejoin:miter;stroke-width:0.8;"/>
   </g>
   <g id="patch_18">
    <path d="M 306.05625 158.428125 
L 493.2 158.428125 
" style="fill:none;stroke:#000000;stroke-linecap:square;stroke-linejoin:miter;stroke-width:0.8;"/>
   </g>
   <g id="text_23">
    <!-- R -->
    <defs>
     <path d="M 44.390625 34.1875 
Q 47.5625 33.109375 50.5625 29.59375 
Q 53.5625 26.078125 56.59375 19.921875 
L 66.609375 0 
L 56 0 
L 46.6875 18.703125 
Q 43.0625 26.03125 39.671875 28.421875 
Q 36.28125 30.8125 30.421875 30.8125 
L 19.671875 30.8125 
L 19.671875 0 
L 9.8125 0 
L 9.8125 72.90625 
L 32.078125 72.90625 
Q 44.578125 72.90625 50.734375 67.671875 
Q 56.890625 62.453125 56.890625 51.90625 
Q 56.890625 45.015625 53.6875 40.46875 
Q 50.484375 35.9375 44.390625 34.1875 
z
M 19.671875 64.796875 
L 19.671875 38.921875 
L 32.078125 38.921875 
Q 39.203125 38.921875 42.84375 42.21875 
Q 46.484375 45.515625 46.484375 51.90625 
Q 46.484375 58.296875 42.84375 61.546875 
Q 39.203125 64.796875 32.078125 64.796875 
z
" id="DejaVuSans-82"/>
    </defs>
    <g transform="translate(372.893304 378.990604)scale(0.15 -0.15)">
     <use xlink:href="#DejaVuSans-82"/>
    </g>
   </g>
   <g id="text_24">
    <!-- F -->
    <g transform="translate(479.832589 378.990604)scale(0.15 -0.15)">
     <use xlink:href="#DejaVuSans-70"/>
    </g>
   </g>
  </g>
 </g>
 <defs>
  <clipPath id="pcccfd91503">
   <rect height="187.14375" width="187.14375" x="58.925" y="158.428125"/>
  </clipPath>
  <clipPath id="pc8ea40fb2c">
   <rect height="187.14375" width="187.14375" x="306.05625" y="158.428125"/>
  </clipPath>
 </defs>
</svg>
